<?xml version="1.0" encoding="UTF-8"?>
<svg version="1.1" xmlns="http://www.w3.org/2000/svg" width="162" height="142">
<path d="M0 0 C53.46 0 106.92 0 162 0 C162 46.86 162 93.72 162 142 C108.54 142 55.08 142 0 142 C0 95.14 0 48.28 0 0 Z " fill="#C2B7CC" transform="translate(0,0)"/>
<path d="M0 0 C0.33 0 0.66 0 1 0 C2.32 4.95 3.64 9.9 5 15 C12.425 15.99 12.425 15.99 20 17 C20.33 14.36 20.66 11.72 21 9 C21.66 9 22.32 9 23 9 C23 11.31 23 13.62 23 16 C24.485 16.495 24.485 16.495 26 17 C26.33 15.35 26.66 13.7 27 12 C27.33 12 27.66 12 28 12 C28 13.98 28 15.96 28 18 C35.65144206 18.9234499 43.31102069 19.48594306 51 20 C51.12246094 19.45859375 51.24492188 18.9171875 51.37109375 18.359375 C52.11004882 15.58714603 53.06926154 12.94135583 54.0625 10.25 C54.42472656 9.26515625 54.78695312 8.2803125 55.16015625 7.265625 C55.57587891 6.14414062 55.57587891 6.14414062 56 5 C56.99 5.33 57.98 5.66 59 6 C58.835 7.03125 58.67 8.0625 58.5 9.125 C57.87202866 13.34059038 57.87202866 13.34059038 58 19 C61.96 19.33 65.92 19.66 70 20 C70 20.66 70 21.32 70 22 C66.05400366 24.63066423 62.9561463 23.99999139 58.4375 23.625 C56.89454166 23.51287751 55.35157336 23.40089191 53.80859375 23.2890625 C52.55175781 23.19367188 51.29492188 23.09828125 50 23 C49.34 23 48.68 23 48 23 C47.67 24.32 47.34 25.64 47 27 C46.34 27 45.68 27 45 27 C44.62875 28.175625 44.62875 28.175625 44.25 29.375 C42.84610901 32.32317108 41.99324263 32.9024777 39 34 C40.875 29.125 40.875 29.125 42 28 C42.04063832 26.33382885 42.042721 24.66611905 42 23 C39.03 22.67 36.06 22.34 33 22 C33 22.66 33 23.32 33 24 C32.34 24 31.68 24 31 24 C30.71125 24.7425 30.4225 25.485 30.125 26.25 C29.75375 27.1575 29.3825 28.065 29 29 C28.71125 29.7425 28.4225 30.485 28.125 31.25 C27 33 27 33 24.875 33.75 C24.25625 33.8325 23.6375 33.915 23 34 C23 33.01 23 32.02 23 31 C22.05125 31.495 21.1025 31.99 20.125 32.5 C17 34 17 34 15 34 C15.48979592 27.51020408 15.48979592 27.51020408 17.9375 25.0625 C20 24 20 24 22 24 C22 23.34 22 22.68 22 22 C16.35443734 24.05808346 16.35443734 24.05808346 12 28 C11.505 29.485 11.505 29.485 11 31 C10.34 31 9.68 31 9 31 C9 31.66 9 32.32 9 33 C7.02 33.495 7.02 33.495 5 34 C5.74869792 32.33984375 6.49739583 30.6796875 7.24609375 29.01953125 C8.22675583 26.55613125 8.22675583 26.55613125 9 22 C5.37 22.33 1.74 22.66 -2 23 C-2.66 24.65 -3.32 26.3 -4 28 C-4.66213085 29.20182995 -5.34775881 30.39119409 -6.0625 31.5625 C-7.5608057 34.22078431 -8.52801962 36.0501226 -9 39 C-7.68 39 -6.36 39 -5 39 C-4.773125 38.175 -4.54625 37.35 -4.3125 36.5 C-2.74879306 32.33011483 -0.801812 28.48355854 2 25 C2.99 24.67 3.98 24.34 5 24 C4.58054965 26.51670208 4.17555668 28.65985893 3 30.9375 C1.7228974 33.57152412 1.39343003 36.11484648 1 39 C3.31 38.34 5.62 37.68 8 37 C8 36.34 8 35.68 8 35 C8.66 35 9.32 35 10 35 C10.33 35.99 10.66 36.98 11 38 C12.051875 37.814375 13.10375 37.62875 14.1875 37.4375 C17.68546771 37.03609387 19.65186227 37.24666901 23 38 C25.33301986 38.03824623 27.66711508 38.04574284 30 38 C30.0825 37.13375 30.165 36.2675 30.25 35.375 C31.11832057 31.46755744 32.52788711 29.12649571 35 26 C35.99 25.67 36.98 25.34 38 25 C37.53029274 27.1919672 37.0204734 28.96266615 35.9375 30.9375 C34.80936076 33.41940633 34.85022363 35.30402539 35 38 C36.98 38 38.96 38 41 38 C41.66 36.68 42.32 35.36 43 34 C43.495 35.98 43.495 35.98 44 38 C46.64 37.67 49.28 37.34 52 37 C51.505 37.99 51.505 37.99 51 39 C45.53441898 40.35451356 39.5969467 41.55720104 34 40.5 C30.5023572 39.91705953 29.13986276 40.47032327 26 42 C24.948125 42.2475 23.89625 42.495 22.8125 42.75 C19.72349146 43.75495967 19.72349146 43.75495967 18.625 46.9375 C17.90001999 49.96896454 17.90001999 49.96896454 18 53 C16.35 53 14.7 53 13 53 C13 52.34 13 51.68 13 51 C11.78441406 51.01160156 10.56882813 51.02320313 9.31640625 51.03515625 C7.73177236 51.04453278 6.14713682 51.05363313 4.5625 51.0625 C3.35883789 51.07506836 3.35883789 51.07506836 2.13085938 51.08789062 C0.08704779 51.0965143 -1.95683902 51.0522815 -4 51 C-4.33 50.67 -4.66 50.34 -5 50 C-5.268125 50.639375 -5.53625 51.27875 -5.8125 51.9375 C-7 54 -7 54 -10 55 C-11.20882096 57.00016466 -11.20882096 57.00016466 -12 59 C-12.33 58.34 -12.66 57.68 -13 57 C-14.051875 57.3403125 -14.051875 57.3403125 -15.125 57.6875 C-19.13154593 58.12299412 -20.81206782 57.46340214 -24 55 C-24.8177065 51.99997292 -24.98699919 49.10069287 -25 46 C-25.99 46.66 -26.98 47.32 -28 48 C-28.94875 48.28875 -29.8975 48.5775 -30.875 48.875 C-34.0487791 49.81480835 -34.0487791 49.81480835 -36.3125 51.9375 C-41.05113759 55.57412885 -46.98287067 57.58230284 -53 57 C-52.92578125 55.1875 -52.92578125 55.1875 -52 53 C-49.70698293 51.81344524 -47.59370513 50.88025997 -45.1875 50 C-40.59576886 48.28926291 -37.43141669 46.5557964 -34 43 C-31.78125 42.1015625 -31.78125 42.1015625 -29.5 41.625 C-28.7471875 41.45226562 -27.994375 41.27953125 -27.21875 41.1015625 C-24.58221892 40.98087622 -23.23159727 41.65089802 -21 43 C-21 43.66 -21 44.32 -21 45 C-20.34 45 -19.68 45 -19 45 C-18 48 -18 48 -18 50 C-16.02 49.505 -16.02 49.505 -14 49 C-14.4125 47.96875 -14.825 46.9375 -15.25 45.875 C-16.88163925 39.4748376 -14.56202885 32.89566289 -12 27 C-10.1015625 25.01953125 -10.1015625 25.01953125 -8 24 C-6.68 24.33 -5.36 24.66 -4 25 C-4 21.7 -4 18.4 -4 15 C-6.64 14.34 -9.28 13.68 -12 13 C-12 12.01 -12 11.02 -12 10 C-9.36 10.33 -6.72 10.66 -4 11 C-4 11.66 -4 12.32 -4 13 C-2.68 13 -1.36 13 0 13 C0 8.71 0 4.42 0 0 Z " fill="#D0BED1" transform="translate(68,55)"/>
<path d="M0 0 C1.66611905 -0.042721 3.33382885 -0.04063832 5 0 C6 1 6 1 6.0625 3.5625 C6.041875 4.366875 6.02125 5.17125 6 6 C6.825 6.185625 7.65 6.37125 8.5 6.5625 C13.12442451 8.46181721 16.60186626 11.34312512 20 15 C20 15.66 20 16.32 20 17 C20.57234375 17.28101562 21.1446875 17.56203125 21.734375 17.8515625 C23.94473787 18.97198782 26.10770444 20.1292948 28.25 21.375 C29.30960938 21.97441406 29.30960938 21.97441406 30.390625 22.5859375 C30.92171875 23.05257812 31.4528125 23.51921875 32 24 C32 25.32 32 26.64 32 28 C30.68 28.33 29.36 28.66 28 29 C27.87753906 29.71542969 27.75507812 30.43085937 27.62890625 31.16796875 C26.98864625 34.05112713 26.06448444 36.58592473 24.9375 39.3125 C24.39416016 40.63701172 24.39416016 40.63701172 23.83984375 41.98828125 C23.56269531 42.65214844 23.28554687 43.31601563 23 44 C15.00023956 44.20483028 7.73865554 44.13480153 0 42 C-0.33 40.68 -0.66 39.36 -1 38 C-1.33 38.99 -1.66 39.98 -2 41 C-3.32 40.67 -4.64 40.34 -6 40 C-5.67 37.69 -5.34 35.38 -5 33 C-5.66 33 -6.32 33 -7 33 C-7.33 35.64 -7.66 38.28 -8 41 C-12.95 40.67 -17.9 40.34 -23 40 C-25.45856034 34.74762109 -26.99948137 29.71263861 -28 24 C-28.2475 22.6078125 -28.2475 22.6078125 -28.5 21.1875 C-28 19 -28 19 -25.5625 17.0625 C-25.01207031 16.74410156 -24.46164063 16.42570312 -23.89453125 16.09765625 C-21.74746955 14.85368854 -19.77426082 13.43460048 -17.75 12 C-12.49137613 8.48830881 -6.44802329 5 0 5 C0 3.35 0 1.7 0 0 Z " fill="#9B3945" transform="translate(96,31)"/>
<path d="M0 0 C0.99 0.33 1.98 0.66 3 1 C1.54550599 2.0055761 0.08627557 3.00430435 -1.375 4 C-2.59316406 4.8353125 -2.59316406 4.8353125 -3.8359375 5.6875 C-6 7 -6 7 -8 7 C-8 7.66 -8 8.32 -8 9 C-7.01 9.33 -6.02 9.66 -5 10 C-7.64 10.33 -10.28 10.66 -13 11 C-13 11.66 -13 12.32 -13 13 C-10.36711392 14.41047468 -7.98181705 15.63856763 -5 16 C-3.31422289 15.38325228 -1.64551962 14.71727778 0 14 C0.99 14 1.98 14 3 14 C3 14.66 3 15.32 3 16 C4.65 16.66 6.3 17.32 8 18 C8 17.34 8 16.68 8 16 C7.34 16 6.68 16 6 16 C6 15.34 6 14.68 6 14 C8.00124361 14.32578384 10.00102872 14.66055205 12 15 C12.9075 15.103125 13.815 15.20625 14.75 15.3125 C17 16 17 16 18.140625 18.04296875 C18.42421875 18.68878906 18.7078125 19.33460937 19 20 C19.85271484 19.71382812 19.85271484 19.71382812 20.72265625 19.421875 C26.95429789 17.63248875 26.95429789 17.63248875 30.15625 18.7578125 C32.0625 19.875 32.0625 19.875 35 22 C35 21.34 35 20.68 35 20 C36.32 20.33 37.64 20.66 39 21 C38.69964844 21.75925781 38.39929688 22.51851562 38.08984375 23.30078125 C37.51943359 24.79158203 37.51943359 24.79158203 36.9375 26.3125 C36.36322266 27.79169922 36.36322266 27.79169922 35.77734375 29.30078125 C34.70610152 32.06233263 34.70610152 32.06233263 36 35 C28.00023956 35.20483028 20.73865554 35.13480153 13 33 C12.67 31.68 12.34 30.36 12 29 C11.67 29.99 11.34 30.98 11 32 C9.68 31.67 8.36 31.34 7 31 C7.33 28.69 7.66 26.38 8 24 C7.34 24 6.68 24 6 24 C5.67 26.64 5.34 29.28 5 32 C0.05 31.67 -4.9 31.34 -10 31 C-12.45856034 25.74762109 -13.99948137 20.71263861 -15 15 C-15.165 14.071875 -15.33 13.14375 -15.5 12.1875 C-15 10 -15 10 -12.5625 8.0625 C-12.02109375 7.75054687 -11.4796875 7.43859375 -10.921875 7.1171875 C-7.82409719 5.31644674 -4.96643368 3.1539501 -2.05078125 1.07421875 C-1.37402344 0.71972656 -0.69726562 0.36523438 0 0 Z " fill="#7C3E37" transform="translate(83,40)"/>
<path d="M0 0 C1.22589844 0.01353516 1.22589844 0.01353516 2.4765625 0.02734375 C3.41628906 0.04474609 3.41628906 0.04474609 4.375 0.0625 C3.375 7.49107143 3.375 7.49107143 2.375 11.0625 C3.035 11.0625 3.695 11.0625 4.375 11.0625 C4.375 10.4025 4.375 9.7425 4.375 9.0625 C5.035 9.0625 5.695 9.0625 6.375 9.0625 C6.41625 8.32 6.4575 7.5775 6.5 6.8125 C7.74671237 2.89426111 9.81741737 1.9459261 13.375 0.0625 C14.695 0.0625 16.015 0.0625 17.375 0.0625 C17.375 0.7225 17.375 1.3825 17.375 2.0625 C16.59125 2.454375 15.8075 2.84625 15 3.25 C11.47053263 5.68701318 11.22464244 7.96876822 10.375 12.0625 C11.138125 11.5675 11.90125 11.0725 12.6875 10.5625 C15.375 9.0625 15.375 9.0625 18.375 9.0625 C18.375 10.0525 18.375 11.0425 18.375 12.0625 C20.33394361 11.94943303 20.33394361 11.94943303 22.375 11.0625 C23.57338209 8.73395537 23.57338209 8.73395537 24.375 6.0625 C25.02713539 4.72199948 25.68879969 3.38588632 26.375 2.0625 C27.035 2.0625 27.695 2.0625 28.375 2.0625 C28.375 1.4025 28.375 0.7425 28.375 0.0625 C29.85406892 0.03560784 31.33327483 0.01615379 32.8125 0 C33.63621094 -0.01160156 34.45992187 -0.02320312 35.30859375 -0.03515625 C37.375 0.0625 37.375 0.0625 38.375 1.0625 C39.05822745 5.84509217 37.17267441 8.30312501 34.375 12.0625 C37.80078949 8.88710444 37.80078949 8.88710444 40.375 5.0625 C41.035 5.0625 41.695 5.0625 42.375 5.0625 C42.560625 4.1034375 42.560625 4.1034375 42.75 3.125 C42.95625 2.444375 43.1625 1.76375 43.375 1.0625 C47.65499354 -1.07749677 52.86548355 -0.03071611 57.375 1.0625 C55.92549545 4.8535119 54.22327434 8.4499638 52.375 12.0625 C53.550625 10.825 53.550625 10.825 54.75 9.5625 C57.375 7.0625 57.375 7.0625 59.375 7.0625 C58.90227227 11.31704953 56.41062624 13.25454573 53.375 16.0625 C52.88 16.5575 52.88 16.5575 52.375 17.0625 C50.70882885 17.10313832 49.04111905 17.105221 47.375 17.0625 C47.375 16.4025 47.375 15.7425 47.375 15.0625 C46.715 15.3925 46.055 15.7225 45.375 16.0625 C43.37539988 16.102492 41.37452758 16.10596799 39.375 16.0625 C38.88 14.5775 38.88 14.5775 38.375 13.0625 C37.818125 13.743125 37.26125 14.42375 36.6875 15.125 C35.924375 15.764375 35.16125 16.40375 34.375 17.0625 C31.625 16.8125 31.625 16.8125 29.375 16.0625 C29.00519356 11.74809149 30.05001054 9.64685875 32.375 6.0625 C32.375 5.4025 32.375 4.7425 32.375 4.0625 C31.715 4.0625 31.055 4.0625 30.375 4.0625 C28.29120491 7.90950632 26.87813376 11.96304429 25.375 16.0625 C20.36178598 16.98329441 16.38690002 16.80500371 11.375 16.0625 C8.56262459 16.42224895 8.56262459 16.42224895 6.375 17.0625 C6.045 15.7425 5.715 14.4225 5.375 13.0625 C4.715 13.0625 4.055 13.0625 3.375 13.0625 C3.375 13.7225 3.375 14.3825 3.375 15.0625 C0.375 17.0625 0.375 17.0625 -3.625 17.0625 C-3.9758075 12.15119497 -2.9634737 9.34970178 -0.625 5.0625 C-0.625 4.4025 -0.625 3.7425 -0.625 3.0625 C-5.1815527 6.77524665 -7.19900393 11.85257402 -9.625 17.0625 C-10.945 17.0625 -12.265 17.0625 -13.625 17.0625 C-13.29869269 10.86266113 -10.13919037 6.01219519 -6.625 1.0625 C-4.21954362 -0.14022819 -2.67503047 -0.03821472 0 0 Z " fill="#C45A79" transform="translate(72.625,76.9375)"/>
<path d="M0 0 C24.75 0 49.5 0 75 0 C75 2.64 75 5.28 75 8 C50.25 8 25.5 8 0 8 C0 5.36 0 2.72 0 0 Z " fill="#6A4447" transform="translate(58,110)"/>
<path d="M0 0 C0.66 0 1.32 0 2 0 C2.8971875 0.9590625 2.8971875 0.9590625 3.8125 1.9375 C6.12697891 4.4847282 6.12697891 4.4847282 11 5 C11 19.52 11 34.04 11 49 C9.35 48.34 7.7 47.68 6 47 C5.505 45.515 5.505 45.515 5 44 C4.34 44 3.68 44 3 44 C0.37084361 39.08628538 -1.61522571 34.43257604 -3 29 C-3.33 28.01 -3.66 27.02 -4 26 C-4.39746004 22.51033152 -4.55755568 19.00624169 -4.75 15.5 C-4.85248047 14.05560547 -4.85248047 14.05560547 -4.95703125 12.58203125 C-5.00730469 11.65777344 -5.05757812 10.73351562 -5.109375 9.78125 C-5.16061523 8.93626953 -5.21185547 8.09128906 -5.26464844 7.22070312 C-5 5 -5 5 -3.61816406 3.20117188 C-2 2 -2 2 0 2 C0 1.34 0 0.68 0 0 Z " fill="#D2BBDF" transform="translate(151,28)"/>
<path d="M0 0 C0.99 0.33 1.98 0.66 3 1 C2.835 2.03125 2.67 3.0625 2.5 4.125 C1.87202866 8.34059038 1.87202866 8.34059038 2 14 C5.96 14.33 9.92 14.66 14 15 C14 15.66 14 16.32 14 17 C10.05400366 19.63066423 6.9561463 18.99999139 2.4375 18.625 C0.89454166 18.51287751 -0.64842664 18.40089191 -2.19140625 18.2890625 C-3.44824219 18.19367188 -4.70507812 18.09828125 -6 18 C-6.66 18 -7.32 18 -8 18 C-8.33 19.32 -8.66 20.64 -9 22 C-9.66 22 -10.32 22 -11 22 C-11.2475 22.78375 -11.495 23.5675 -11.75 24.375 C-13.15389099 27.32317108 -14.00675737 27.9024777 -17 29 C-15.125 24.125 -15.125 24.125 -14 23 C-13.95936168 21.33382885 -13.957279 19.66611905 -14 18 C-16.97 17.67 -19.94 17.34 -23 17 C-23 17.66 -23 18.32 -23 19 C-23.66 19 -24.32 19 -25 19 C-25.433125 20.11375 -25.433125 20.11375 -25.875 21.25 C-26.24625 22.1575 -26.6175 23.065 -27 24 C-27.433125 25.11375 -27.433125 25.11375 -27.875 26.25 C-29 28 -29 28 -31.125 28.75 C-32.053125 28.87375 -32.053125 28.87375 -33 29 C-33 28.01 -33 27.02 -33 26 C-33.94875 26.495 -34.8975 26.99 -35.875 27.5 C-39 29 -39 29 -41 29 C-40.51020408 22.51020408 -40.51020408 22.51020408 -38.0625 20.0625 C-36 19 -36 19 -34 19 C-34 18.34 -34 17.68 -34 17 C-34.61875 16.87625 -35.2375 16.7525 -35.875 16.625 C-38 16 -38 16 -40 14 C-39.67 13.34 -39.34 12.68 -39 12 C-38.01 12 -37.02 12 -36 12 C-35.67 9.36 -35.34 6.72 -35 4 C-34.34 4 -33.68 4 -33 4 C-33 6.31 -33 8.62 -33 11 C-32.01 11.33 -31.02 11.66 -30 12 C-29.67 10.35 -29.34 8.7 -29 7 C-28.67 7 -28.34 7 -28 7 C-28 8.98 -28 10.96 -28 13 C-20.34855794 13.9234499 -12.68897931 14.48594306 -5 15 C-4.81630859 14.18789062 -4.81630859 14.18789062 -4.62890625 13.359375 C-3.88995118 10.58714603 -2.93073846 7.94135583 -1.9375 5.25 C-1.57527344 4.26515625 -1.21304688 3.2803125 -0.83984375 2.265625 C-0.56269531 1.51796875 -0.28554687 0.7703125 0 0 Z " fill="#C794A3" transform="translate(124,60)"/>
<path d="M0 0 C1.32 0.66 2.64 1.32 4 2 C5.98 2.66 7.96 3.32 10 4 C10 10.93 10 17.86 10 25 C7.69 24.67 5.38 24.34 3 24 C1.5625 21.9375 1.5625 21.9375 1 20 C0.34 20 -0.32 20 -1 20 C-1 20.66 -1 21.32 -1 22 C-1.66 22 -2.32 22 -3 22 C-3.33 22.99 -3.66 23.98 -4 25 C-4.66 25 -5.32 25 -6 25 C-5.690625 26.175625 -5.690625 26.175625 -5.375 27.375 C-5.25125 28.24125 -5.1275 29.1075 -5 30 C-5.66 30.66 -6.32 31.32 -7 32 C-7.33 31.34 -7.66 30.68 -8 30 C-10.61001142 28.88142368 -11.73948738 28.90648265 -14.4375 29.875 C-15.7059375 30.431875 -15.7059375 30.431875 -17 31 C-20.40180296 31.85045074 -23.49756131 32.10006968 -27 32 C-25.54308827 28.6005393 -23.8814072 26.33627611 -21 24 C-17.25 22.75 -17.25 22.75 -14 22 C-14 21.34 -14 20.68 -14 20 C-13.01 20 -12.02 20 -11 20 C-11.33 18.68 -11.66 17.36 -12 16 C-11.34 16 -10.68 16 -10 16 C-10 17.65 -10 19.3 -10 21 C-9.34 21 -8.68 21 -8 21 C-8 19.35 -8 17.7 -8 16 C-7.34 16 -6.68 16 -6 16 C-6 16.99 -6 17.98 -6 19 C-5.01 15.535 -5.01 15.535 -4 12 C-3.34 12 -2.68 12 -2 12 C-2 11.34 -2 10.68 -2 10 C0.31 10.33 2.62 10.66 5 11 C3.35 7.37 1.7 3.74 0 0 Z " fill="#CB97B0" transform="translate(152,8)"/>
<path d="M0 0 C5.21148199 1.98983858 8.62226805 5.21019857 12.0625 9.5 C14.19100346 12.0205962 15.40909306 13.1908678 18.4375 14.3125 C18.4375 14.9725 18.4375 15.6325 18.4375 16.3125 C14.5625 15.4375 14.5625 15.4375 13.4375 14.3125 C10.64520345 14.57626743 7.87910212 14.96314667 5.1015625 15.3515625 C1.82247906 15.3034821 1.62301003 14.54463424 -0.5625 12.3125 C-3.02454923 12.24192411 -3.02454923 12.24192411 -5.625 12.75 C-8.28515625 13.18359375 -8.28515625 13.18359375 -10.5625 13.3125 C-11.2225 12.6525 -11.8825 11.9925 -12.5625 11.3125 C-16.39703269 11.05686449 -19.83029887 11.43433503 -23.5625 12.3125 C-23.5625 11.6525 -23.5625 10.9925 -23.5625 10.3125 C-25.2125 10.3125 -26.8625 10.3125 -28.5625 10.3125 C-28.5625 9.6525 -28.5625 8.9925 -28.5625 8.3125 C-26.515625 6.83984375 -26.515625 6.83984375 -23.8125 5.25 C-22.93078125 4.72277344 -22.0490625 4.19554687 -21.140625 3.65234375 C-18.8927023 2.48410513 -17.03429076 1.78029218 -14.5625 1.3125 C-14.5625 2.3025 -14.5625 3.2925 -14.5625 4.3125 C-13.2425 4.3125 -11.9225 4.3125 -10.5625 4.3125 C-10.5625 3.3225 -10.5625 2.3325 -10.5625 1.3125 C-11.2225 0.9825 -11.8825 0.6525 -12.5625 0.3125 C-8.57691876 -1.68029062 -4.24220728 -0.81867158 0 0 Z " fill="#E79966" transform="translate(103.5625,38.6875)"/>
<path d="M0 0 C1.47906892 -0.02689216 2.95827483 -0.04634621 4.4375 -0.0625 C5.26121094 -0.07410156 6.08492188 -0.08570312 6.93359375 -0.09765625 C9 0 9 0 10 1 C10.68322745 5.78259217 8.79767441 8.24062501 6 12 C9.42578949 8.82460444 9.42578949 8.82460444 12 5 C12.66 5 13.32 5 14 5 C14.12375 4.360625 14.2475 3.72125 14.375 3.0625 C14.58125 2.381875 14.7875 1.70125 15 1 C19.27999354 -1.13999677 24.49048355 -0.09321611 29 1 C27.55049545 4.7910119 25.84827434 8.3874638 24 12 C24.78375 11.175 25.5675 10.35 26.375 9.5 C29 7 29 7 31 7 C30.52727227 11.25454953 28.03562624 13.19204573 25 16 C24.67 16.33 24.34 16.66 24 17 C22.33382885 17.04063832 20.66611905 17.042721 19 17 C19 16.34 19 15.68 19 15 C18.01 15.495 18.01 15.495 17 16 C15.00039988 16.039992 12.99952758 16.04346799 11 16 C10.67 15.01 10.34 14.02 10 13 C9.1646875 14.0209375 9.1646875 14.0209375 8.3125 15.0625 C7.1678125 16.0215625 7.1678125 16.0215625 6 17 C3.25 16.75 3.25 16.75 1 16 C0.63019356 11.68559149 1.67501054 9.58435875 4 6 C4 5.34 4 4.68 4 4 C3.34 4 2.68 4 2 4 C1.67 4.66 1.34 5.32 1 6 C0.67 4.02 0.34 2.04 0 0 Z " fill="#C15275" transform="translate(101,77)"/>
<path d="M0 0 C0 0.99 0 1.98 0 3 C-1.32 3 -2.64 3 -4 3 C-4 3.66 -4 4.32 -4 5 C-3.01 5 -2.02 5 -1 5 C-0.67 5.99 -0.34 6.98 0 8 C-0.75925781 8.18175781 -1.51851562 8.36351563 -2.30078125 8.55078125 C-3.29464844 8.80214844 -4.28851563 9.05351563 -5.3125 9.3125 C-6.79169922 9.67794922 -6.79169922 9.67794922 -8.30078125 10.05078125 C-11.00141012 11.00049589 -12.20956216 11.81847677 -14 14 C-8.54011107 16.18395557 -3.28148656 17.28795548 2.2890625 15.1015625 C4.23822078 14.1304271 6.12955547 13.11430738 8 12 C6.74136239 15.485458 5.25920421 18.08186123 3 21 C2.30419733 22.31836295 1.62775567 23.64791086 1 25 C-1.5 23.1875 -1.5 23.1875 -4 21 C-4 20.01 -4 19.02 -4 18 C-7.63 18.66 -11.26 19.32 -15 20 C-17.49006623 13.77483444 -17.49006623 13.77483444 -16 10 C-13.15174779 7.84456589 -10.5051418 6.64910033 -7 6 C-7.83082318 3.76176583 -7.83082318 3.76176583 -10.296875 3.1796875 C-13.02977483 2.74809113 -13.02977483 2.74809113 -15.203125 4.2578125 C-16.21632813 5.18207031 -16.21632813 5.18207031 -17.25 6.125 C-17.93578125 6.72570312 -18.6215625 7.32640625 -19.328125 7.9453125 C-21.75402685 10.92667786 -22.08336185 13.45915035 -21.87890625 17.23828125 C-21.77449219 17.92277344 -21.67007812 18.60726562 -21.5625 19.3125 C-21.376875 20.529375 -21.19125 21.74625 -21 23 C-16.545 23.99 -16.545 23.99 -12 25 C-12.33 25.66 -12.66 26.32 -13 27 C-16.46941546 26.54177532 -19.67395049 26.10868317 -23 25 C-24.48303907 22.03392187 -24.5770041 18.943726 -24.875 15.6875 C-24.96007812 15.02298828 -25.04515625 14.35847656 -25.1328125 13.67382812 C-25.48112008 9.67224903 -25.20273049 8.24733786 -22.62109375 5.09765625 C-15.81856189 -0.34639682 -8.39653336 -0.1499381 0 0 Z " fill="#DFB4C0" transform="translate(48,61)"/>
<path d="M0 0 C0.33 0 0.66 0 1 0 C2.32 4.95 3.64 9.9 5 15 C7.3821875 15.1546875 7.3821875 15.1546875 9.8125 15.3125 C14.56464616 15.62108092 14.56464616 15.62108092 16.6875 17.46875 C17.120625 17.9740625 17.55375 18.479375 18 19 C20.09989652 20.17574711 20.09989652 20.17574711 22 21 C20.68 21 19.36 21 18 21 C18 21.66 18 22.32 18 23 C17.21625 23.433125 16.4325 23.86625 15.625 24.3125 C12.58313785 26.26798281 12.01018099 27.60211849 11 31 C10.34 31 9.68 31 9 31 C9 31.66 9 32.32 9 33 C7.02 33.495 7.02 33.495 5 34 C5.74869792 32.33984375 6.49739583 30.6796875 7.24609375 29.01953125 C8.22675583 26.55613125 8.22675583 26.55613125 9 22 C5.37 22.33 1.74 22.66 -2 23 C-2 23.66 -2 24.32 -2 25 C-2.66 25 -3.32 25 -4 25 C-4 21.7 -4 18.4 -4 15 C-6.64 14.34 -9.28 13.68 -12 13 C-12 12.01 -12 11.02 -12 10 C-9.36 10.33 -6.72 10.66 -4 11 C-4 11.66 -4 12.32 -4 13 C-2.68 13 -1.36 13 0 13 C0 8.71 0 4.42 0 0 Z " fill="#D9ACB7" transform="translate(68,55)"/>
<path d="M0 0 C0.99 0.33 1.98 0.66 3 1 C1.54550599 2.0055761 0.08627557 3.00430435 -1.375 4 C-2.59316406 4.8353125 -2.59316406 4.8353125 -3.8359375 5.6875 C-6 7 -6 7 -8 7 C-8 7.66 -8 8.32 -8 9 C-7.01 9.33 -6.02 9.66 -5 10 C-7.64 10.33 -10.28 10.66 -13 11 C-13 11.66 -13 12.32 -13 13 C-10.36711392 14.41047468 -7.98181705 15.63856763 -5 16 C-3.31422289 15.38325228 -1.64551962 14.71727778 0 14 C0.99 14 1.98 14 3 14 C3 14.66 3 15.32 3 16 C3.99 16.33 4.98 16.66 6 17 C6 17.66 6 18.32 6 19 C6.99 19 7.98 19 9 19 C9 19.66 9 20.32 9 21 C8.01 21.33 7.02 21.66 6 22 C5.34 22.99 4.68 23.98 4 25 C4 23.68 4 22.36 4 21 C3.01 21 2.02 21 1 21 C1 23.97 1 26.94 1 30 C0.34 30 -0.32 30 -1 30 C-1.12375 29.030625 -1.2475 28.06125 -1.375 27.0625 C-1.58125 26.051875 -1.7875 25.04125 -2 24 C-2.66 23.67 -3.32 23.34 -4 23 C-4 22.34 -4 21.68 -4 21 C-4.99 21 -5.98 21 -7 21 C-5.8905928 24.48670834 -4.73662334 27.77484237 -3 31 C-5.31 31 -7.62 31 -10 31 C-12.45856034 25.74762109 -13.99948137 20.71263861 -15 15 C-15.165 14.071875 -15.33 13.14375 -15.5 12.1875 C-15 10 -15 10 -12.5625 8.0625 C-12.02109375 7.75054687 -11.4796875 7.43859375 -10.921875 7.1171875 C-7.82409719 5.31644674 -4.96643368 3.1539501 -2.05078125 1.07421875 C-1.37402344 0.71972656 -0.69726562 0.36523438 0 0 Z M-6 23 C-4 24 -4 24 -4 24 Z " fill="#A64D42" transform="translate(83,40)"/>
<path d="M0 0 C0.99 0.33 1.98 0.66 3 1 C2.835 2.03125 2.67 3.0625 2.5 4.125 C1.87202866 8.34059038 1.87202866 8.34059038 2 14 C5.96 14.33 9.92 14.66 14 15 C14 15.66 14 16.32 14 17 C10.05400366 19.63066423 6.9561463 18.99999139 2.4375 18.625 C0.89454166 18.51287751 -0.64842664 18.40089191 -2.19140625 18.2890625 C-3.44824219 18.19367188 -4.70507812 18.09828125 -6 18 C-6.66 18 -7.32 18 -8 18 C-8.33 19.32 -8.66 20.64 -9 22 C-9.66 22 -10.32 22 -11 22 C-11.2475 22.78375 -11.495 23.5675 -11.75 24.375 C-13.15389099 27.32317108 -14.00675737 27.9024777 -17 29 C-15.125 24.125 -15.125 24.125 -14 23 C-13.95936168 21.33382885 -13.957279 19.66611905 -14 18 C-14.721875 18.04125 -15.44375 18.0825 -16.1875 18.125 C-19.20729369 17.99078695 -21.26935729 17.24829381 -24 16 C-24 15.67 -24 15.34 -24 15 C-17.73 15 -11.46 15 -5 15 C-4.67 13.68 -4.34 12.36 -4 11 C-3.33115783 9.07674299 -2.64249235 7.16030185 -1.9375 5.25 C-1.57527344 4.26515625 -1.21304688 3.2803125 -0.83984375 2.265625 C-0.56269531 1.51796875 -0.28554687 0.7703125 0 0 Z " fill="#C6ACC1" transform="translate(124,60)"/>
<path d="M0 0 C5.28 0 10.56 0 16 0 C15.01 0.495 15.01 0.495 14 1 C14 2.65 14 4.3 14 6 C14.99 6 15.98 6 17 6 C17 4.35 17 2.7 17 1 C17.28875 1.639375 17.5775 2.27875 17.875 2.9375 C18.82823451 5.15206079 18.82823451 5.15206079 21 6 C21 5.01 21 4.02 21 3 C21.66 3 22.32 3 23 3 C23 3.99 23 4.98 23 6 C23.99 6 24.98 6 26 6 C26.33 4.35 26.66 2.7 27 1 C25.68 1.33 24.36 1.66 23 2 C23 1.34 23 0.68 23 0 C27.62 0 32.24 0 37 0 C37.495 2.475 37.495 2.475 38 5 C40.31 5.33 42.62 5.66 45 6 C45 4.02 45 2.04 45 0 C45.66 0 46.32 0 47 0 C47 2.31 47 4.62 47 7 C31.16 7 15.32 7 -1 7 C-1 5.35 -1 3.7 -1 2 C-0.01 3.485 -0.01 3.485 1 5 C3.14133183 5.32627559 3.14133183 5.32627559 5.5 5.125 C9.82840237 4.91420118 9.82840237 4.91420118 12 6 C12 4.35 12 2.7 12 1 C11.01 1 10.02 1 9 1 C8.67 1.99 8.34 2.98 8 4 C7.01 3.01 6.02 2.02 5 1 C5 1.99 5 2.98 5 4 C4.34 4 3.68 4 3 4 C3 3.01 3 2.02 3 1 C2.01 0.67 1.02 0.34 0 0 Z " fill="#603635" transform="translate(86,111)"/>
<path d="M0 0 C1.32 0.66 2.64 1.32 4 2 C5.98 2.66 7.96 3.32 10 4 C10 10.93 10 17.86 10 25 C5 25 5 25 3.125 23.3125 C1.72138511 20.42729162 2.07945658 19.01268757 3 16 C2.01 16.33 1.02 16.66 0 17 C-1.4606285 14.35261084 -2 13.10551666 -2 10 C0.31 10.33 2.62 10.66 5 11 C3.35 7.37 1.7 3.74 0 0 Z " fill="#B27694" transform="translate(152,8)"/>
<path d="M0 0 C5.12175145 0.93122754 10.06435656 2.35478552 15 4 C15 4.66 15 5.32 15 6 C17.31 6 19.62 6 22 6 C21.34 7.32 20.68 8.64 20 10 C21.10709491 12.06295292 21.10709491 12.06295292 23 14 C26.10197397 14.80946422 26.10197397 14.80946422 29 15 C29.33 16.65 29.66 18.3 30 20 C30.969375 20.268125 31.93875 20.53625 32.9375 20.8125 C33.948125 21.204375 34.95875 21.59625 36 22 C36.495 23.485 36.495 23.485 37 25 C34 26 34 26 32.1328125 25.21484375 C28.68812533 23.02337934 26.16760213 21.20627955 23.5625 18 C20.64181473 14.58066115 17.93290539 13.19815094 13.890625 11.37109375 C12 10 12 10 11.234375 7.34765625 C11.15703125 6.57292969 11.0796875 5.79820313 11 5 C9.35 4.67 7.7 4.34 6 4 C6 5.65 6 7.3 6 9 C3.125 9.625 3.125 9.625 0 10 C-0.66 9.34 -1.32 8.68 -2 8 C-2 7.01 -2 6.02 -2 5 C-1.01 4.34 -0.02 3.68 1 3 C0.67 2.01 0.34 1.02 0 0 Z " fill="#C5A8B2" transform="translate(90,27)"/>
<path d="M0 0 C1.22589844 0.01353516 1.22589844 0.01353516 2.4765625 0.02734375 C3.41628906 0.04474609 3.41628906 0.04474609 4.375 0.0625 C3.375 7.49107143 3.375 7.49107143 2.375 11.0625 C3.035 11.0625 3.695 11.0625 4.375 11.0625 C4.705 10.4025 5.035 9.7425 5.375 9.0625 C5.705 11.3725 6.035 13.6825 6.375 16.0625 C6.045 15.0725 5.715 14.0825 5.375 13.0625 C4.715 13.0625 4.055 13.0625 3.375 13.0625 C3.375 13.7225 3.375 14.3825 3.375 15.0625 C0.375 17.0625 0.375 17.0625 -3.625 17.0625 C-3.9758075 12.15119497 -2.9634737 9.34970178 -0.625 5.0625 C-0.625 4.4025 -0.625 3.7425 -0.625 3.0625 C-5.1815527 6.77524665 -7.19900393 11.85257402 -9.625 17.0625 C-10.945 17.0625 -12.265 17.0625 -13.625 17.0625 C-13.29869269 10.86266113 -10.13919037 6.01219519 -6.625 1.0625 C-4.21954362 -0.14022819 -2.67503047 -0.03821472 0 0 Z " fill="#C15879" transform="translate(72.625,76.9375)"/>
<path d="M0 0 C0.66 0.33 1.32 0.66 2 1 C4.87910588 1.23274209 7.74146495 1.41972757 10.625 1.5625 C11.42679688 1.60568359 12.22859375 1.64886719 13.0546875 1.69335938 C15.0362511 1.79951457 17.01810271 1.90026855 19 2 C19 2.66 19 3.32 19 4 C26.59 3.67 34.18 3.34 42 3 C42 2.67 42 2.34 42 2 C50.25 2 58.5 2 67 2 C67 1.34 67 0.68 67 0 C67.99 0.495 67.99 0.495 69 1 C69.33 0.67 69.66 0.34 70 0 C72.0625 0.4375 72.0625 0.4375 74 1 C73.01 1.33 72.02 1.66 71 2 C70.67 2.99 70.34 3.98 70 5 C46.57 5 23.14 5 -1 5 C-0.67 3.35 -0.34 1.7 0 0 Z " fill="#CCC2D8" transform="translate(62,104)"/>
<path d="M0 0 C1.65 0 3.3 0 5 0 C5 3.96 5 7.92 5 12 C1.26512223 11.5020163 -0.81237635 11.12508244 -4 9 C-3.01 10.485 -3.01 10.485 -2 12 C-2.375 14.6875 -2.375 14.6875 -3 17 C-4.32 16.67 -5.64 16.34 -7 16 C-7 15.34 -7 14.68 -7 14 C-7.66 14 -8.32 14 -9 14 C-9 10.7 -9 7.4 -9 4 C-6 3 -6 3 -3.9375 2.5625 C-1.78505328 2.10633245 -1.78505328 2.10633245 0 0 Z " fill="#D4BDDF" transform="translate(157,0)"/>
<path d="M0 0 C0 3 0 3 -1.125 4.5 C-3.57760379 6.46208303 -6.16661287 7.63577657 -9 9 C-10.48153118 9.85005887 -11.9605482 10.70450926 -13.4375 11.5625 C-16.26624011 13.161145 -18.8539201 14.3735245 -22 15.1875 C-22.99 15.455625 -23.98 15.72375 -25 16 C-25.33 16.66 -25.66 17.32 -26 18 C-25.34 18.33 -24.68 18.66 -24 19 C-27.71599191 19.20086443 -28.77208445 19.1519437 -32 17 C-31.3125 14.125 -31.3125 14.125 -30 11 C-27.5 9.5625 -27.5 9.5625 -25 9 C-24.34 9.33 -23.68 9.66 -23 10 C-17.47047102 8.2226514 -12.43230092 5.78448934 -7.296875 3.0859375 C-5.18464796 2.08729954 -3.26230321 1.53054013 -1 1 C-0.67 0.67 -0.34 0.34 0 0 Z " fill="#D6BCCC" transform="translate(38,90)"/>
<path d="M0 0 C1.66611905 -0.042721 3.33382885 -0.04063832 5 0 C6 1 6 1 6.0625 3.5625 C6.041875 4.366875 6.02125 5.17125 6 6 C6.825 6.185625 7.65 6.37125 8.5 6.5625 C13.12442451 8.46181721 16.60186626 11.34312512 20 15 C20 15.66 20 16.32 20 17 C20.57234375 17.28101562 21.1446875 17.56203125 21.734375 17.8515625 C23.94473787 18.97198782 26.10770444 20.1292948 28.25 21.375 C29.30960938 21.97441406 29.30960938 21.97441406 30.390625 22.5859375 C30.92171875 23.05257812 31.4528125 23.51921875 32 24 C32 25.32 32 26.64 32 28 C31.01 27.67 30.02 27.34 29 27 C29.33 26.34 29.66 25.68 30 25 C29.38125 25.20625 28.7625 25.4125 28.125 25.625 C27.42375 25.74875 26.7225 25.8725 26 26 C25.34 25.34 24.68 24.68 24 24 C24.66 24 25.32 24 26 24 C26 23.34 26 22.68 26 22 C25.29875 21.814375 24.5975 21.62875 23.875 21.4375 C21.01128018 20.00564009 20.02431242 19.04232559 18.0625 16.625 C14.84443679 12.66430682 11.53265459 9.77927834 6.5625 8.25 C3.36325968 7.93787899 0.21205397 7.93701855 -3 8 C-3 9.32 -3 10.64 -3 12 C-4.32 12 -5.64 12 -7 12 C-7 11.01 -7 10.02 -7 9 C-7.99 8.67 -8.98 8.34 -10 8 C-3.375 5 -3.375 5 0 5 C0 3.35 0 1.7 0 0 Z " fill="#8D5754" transform="translate(96,31)"/>
<path d="M0 0 C2.64 0.33 5.28 0.66 8 1 C7.67 1.99 7.34 2.98 7 4 C6.34 4 5.68 4 5 4 C5 4.66 5 5.32 5 6 C6.32 6.33 7.64 6.66 9 7 C8.01 8.485 8.01 8.485 7 10 C5.68 10 4.36 10 3 10 C2.67 10.66 2.34 11.32 2 12 C2 11.34 2 10.68 2 10 C1.34 10 0.68 10 0 10 C-0.33 12.64 -0.66 15.28 -1 18 C-8.29411765 17.63529412 -8.29411765 17.63529412 -11.5 14.75 C-13.09290174 11.82968014 -13.37325636 10.26599313 -13 7 C-12.01 7 -11.02 7 -10 7 C-10 7.66 -10 8.32 -10 9 C-9.01 9.33 -8.02 9.66 -7 10 C-7 11.98 -7 13.96 -7 16 C-6.34 16 -5.68 16 -5 16 C-5 13.03 -5 10.06 -5 7 C-3.68 7.33 -2.36 7.66 -1 8 C1.18703385 7.62092718 1.18703385 7.62092718 3 7 C3 6.34 3 5.68 3 5 C2.01 4.67 1.02 4.34 0 4 C0.66 4 1.32 4 2 4 C2 3.34 2 2.68 2 2 C1.34 2 0.68 2 0 2 C0 1.34 0 0.68 0 0 Z " fill="#843D36" transform="translate(89,54)"/>
<path d="M0 0 C0.99 0 1.98 0 3 0 C3 0.99 3 1.98 3 3 C4.98 2.67 6.96 2.34 9 2 C9 2.99 9 3.98 9 5 C8.34 5 7.68 5 7 5 C7 6.65 7 8.3 7 10 C8.98 9.67 10.96 9.34 13 9 C11.75 10.5625 11.75 10.5625 10 12 C7.86254078 11.74853421 6.54074221 11.54074221 5 10 C1.16680771 9.82576399 -2.26835686 10.12196632 -6 11 C-6 10.34 -6 9.68 -6 9 C-7.65 9 -9.3 9 -11 9 C-11 8.34 -11 7.68 -11 7 C-8.84765625 5.52734375 -8.84765625 5.52734375 -6.0625 3.9375 C-2.84169663 2.22531095 -2.84169663 2.22531095 0 0 Z " fill="#E1946D" transform="translate(86,40)"/>
<path d="M0 0 C3.82946843 1.45255699 5.12050295 3.42895561 7 7 C6.34 7 5.68 7 5 7 C5 8.32 5 9.64 5 11 C3.68 11 2.36 11 1 11 C1 12.98 1 14.96 1 17 C2.32 17 3.64 17 5 17 C5.66 15.68 6.32 14.36 7 13 C8.32 13.33 9.64 13.66 11 14 C11 14.66 11 15.32 11 16 C9.35 16 7.7 16 6 16 C6 16.66 6 17.32 6 18 C3.69 18 1.38 18 -1 18 C-1.33 16.68 -1.66 15.36 -2 14 C-2.33 14.99 -2.66 15.98 -3 17 C-4.32 16.67 -5.64 16.34 -7 16 C-6.34 13.69 -5.68 11.38 -5 9 C-4.360625 8.87625 -3.72125 8.7525 -3.0625 8.625 C-2.381875 8.41875 -1.70125 8.2125 -1 8 C-0.67 7.34 -0.34 6.68 0 6 C-0.99 5.67 -1.98 5.34 -3 5 C-3 3 -3 3 -1.5 1.375 C-1.005 0.92125 -0.51 0.4675 0 0 Z " fill="#71342C" transform="translate(97,55)"/>
<path d="M0 0 C2.375 1.5625 2.375 1.5625 4 3 C4 2.34 4 1.68 4 1 C5.32 1.33 6.64 1.66 8 2 C7.37935063 3.60585493 6.7533082 5.20962617 6.125 6.8125 C5.77695313 7.70582031 5.42890625 8.59914063 5.0703125 9.51953125 C4 12 4 12 2 15 C1.34 15 0.68 15 0 15 C0.33 13.68 0.66 12.36 1 11 C0.34 11 -0.32 11 -1 11 C-1.33 11.66 -1.66 12.32 -2 13 C-2.66 13 -3.32 13 -4 13 C-3.835 12.030625 -3.67 11.06125 -3.5 10.0625 C-3.14007707 8.04016429 -3.14007707 8.04016429 -3 6 C-3.66 6 -4.32 6 -5 6 C-5.66 4.68 -6.32 3.36 -7 2 C-7.66 2 -8.32 2 -9 2 C-9 1.34 -9 0.68 -9 0 C-5.43564899 -1.188117 -3.62175183 -0.88695963 0 0 Z " fill="#6B312B" transform="translate(114,59)"/>
<path d="M0 0 C0.99 0.33 1.98 0.66 3 1 C1.54550599 2.0055761 0.08627557 3.00430435 -1.375 4 C-2.59316406 4.8353125 -2.59316406 4.8353125 -3.8359375 5.6875 C-6 7 -6 7 -8 7 C-8 7.66 -8 8.32 -8 9 C-7.01 9.33 -6.02 9.66 -5 10 C-7.64 10.33 -10.28 10.66 -13 11 C-13 11.66 -13 12.32 -13 13 C-12.34 13 -11.68 13 -11 13 C-10.67 13.99 -10.34 14.98 -10 16 C-9.34 16.33 -8.68 16.66 -8 17 C-8 21.29 -8 25.58 -8 30 C-8.99 30 -9.98 30 -11 30 C-11.67449966 27.60612843 -12.33976641 25.21030779 -13 22.8125 C-13.19078125 22.13896484 -13.3815625 21.46542969 -13.578125 20.77148438 C-15.49039532 13.77120909 -15.49039532 13.77120909 -15 10 C-12.5625 8.0625 -12.5625 8.0625 -10.921875 7.1171875 C-7.82409719 5.31644674 -4.96643368 3.1539501 -2.05078125 1.07421875 C-1.37402344 0.71972656 -0.69726562 0.36523438 0 0 Z " fill="#8B3F4F" transform="translate(83,40)"/>
<path d="M0 0 C-1.07401108 2.91517292 -1.77810176 4.77810176 -4 7 C-4.33 5.68 -4.66 4.36 -5 3 C-5.33 3.66 -5.66 4.32 -6 5 C-6.66 5 -7.32 5 -8 5 C-8.33 6.65 -8.66 8.3 -9 10 C-9.66 10 -10.32 10 -11 10 C-11 10.66 -11 11.32 -11 12 C-11.99 12 -12.98 12 -14 12 C-14 9.69 -14 7.38 -14 5 C-14.99 6.32 -15.98 7.64 -17 9 C-17.66 8.67 -18.32 8.34 -19 8 C-18.34 6.68 -17.68 5.36 -17 4 C-16.34 4 -15.68 4 -15 4 C-14.814375 3.0409375 -14.814375 3.0409375 -14.625 2.0625 C-14.41875 1.381875 -14.2125 0.70125 -14 0 C-9.72000646 -2.13999677 -4.50951645 -1.09321611 0 0 Z " fill="#C16081" transform="translate(130,78)"/>
<path d="M0 0 C-0.99 0.495 -0.99 0.495 -2 1 C-1.79375 1.78375 -1.5875 2.5675 -1.375 3.375 C-1.25125 4.24125 -1.1275 5.1075 -1 6 C-1.66 6.66 -2.32 7.32 -3 8 C-3.33 7.34 -3.66 6.68 -4 6 C-6.61001142 4.88142368 -7.73948738 4.90648265 -10.4375 5.875 C-11.7059375 6.431875 -11.7059375 6.431875 -13 7 C-16.40180296 7.85045074 -19.49756131 8.10006968 -23 8 C-21.95831408 4.97911083 -21.09412504 4.05691281 -18.3125 2.375 C-11.59619187 -0.41290149 -7.08881493 -1.24365174 0 0 Z " fill="#DDB0BD" transform="translate(148,32)"/>
<path d="M0 0 C0.33 0.99 0.66 1.98 1 3 C0.2884375 4.175625 0.2884375 4.175625 -0.4375 5.375 C-2.14700024 8.24696041 -2.28042368 9.72839042 -2 13 C-0.02 13 1.96 13 4 13 C4.66 11.68 5.32 10.36 6 9 C6.33 10.32 6.66 11.64 7 13 C9.64 12.67 12.28 12.34 15 12 C14.67 12.66 14.34 13.32 14 14 C8.53441898 15.35451356 2.5969467 16.55720104 -3 15.5 C-6.44021806 14.92663032 -7.86167307 15.69236378 -11 17 C-11.99 16.34 -12.98 15.68 -14 15 C-14 14.34 -14 13.68 -14 13 C-11.69 13 -9.38 13 -7 13 C-6.9175 12.13375 -6.835 11.2675 -6.75 10.375 C-5.88637078 6.4886685 -4.41050184 4.14095694 -2 1 C-1.34 0.67 -0.68 0.34 0 0 Z " fill="#DAB4CD" transform="translate(105,80)"/>
<path d="M0 0 C5.75468017 0.34528081 9.06629552 1.89146421 13 6 C13.88723637 7.0523036 14.76259471 8.11475196 15.625 9.1875 C17.75350346 11.7080962 18.97159306 12.8783678 22 14 C22 14.66 22 15.32 22 16 C18.125 15.125 18.125 15.125 17 14 C14.20770345 14.26376743 11.44160212 14.65064667 8.6640625 15.0390625 C6 15 6 15 4.1484375 13.5234375 C3.76945312 13.02070312 3.39046875 12.51796875 3 12 C3.33 11.34 3.66 10.68 4 10 C6 10 8 10 10 10 C10 9.34 10 8.68 10 8 C9.34 8 8.68 8 8 8 C7.79375 7.401875 7.5875 6.80375 7.375 6.1875 C5.49073918 3.18981233 3.18867916 2.38638224 0 1 C0 0.67 0 0.34 0 0 Z " fill="#E09C7F" transform="translate(100,39)"/>
<path d="M0 0 C1 3 1 3 -0.375 5.8125 C-0.91125 6.864375 -1.4475 7.91625 -2 9 C-2.70758326 12.2366963 -2.70758326 12.2366963 -3 15 C-0.69 14.34 1.62 13.68 4 13 C4 12.34 4 11.68 4 11 C4.66 11 5.32 11 6 11 C6.33 11.99 6.66 12.98 7 14 C8.60875 13.6596875 8.60875 13.6596875 10.25 13.3125 C14 13 14 13 16.234375 14.48046875 C16.81703125 14.98191406 17.3996875 15.48335937 18 16 C16.85660156 15.98839844 15.71320313 15.97679688 14.53515625 15.96484375 C13.04427246 15.95546712 11.55338691 15.94636679 10.0625 15.9375 C9.30775391 15.92912109 8.55300781 15.92074219 7.77539062 15.91210938 C5.85005687 15.90347559 3.92464419 15.94775667 2 16 C1.67 16.33 1.34 16.66 1 17 C-0.66617115 17.04063832 -2.33388095 17.042721 -4 17 C-4.66 15.35 -5.32 13.7 -6 12 C-6.66 12 -7.32 12 -8 12 C-6.42527704 7.53828494 -4.40622971 2.20311486 0 0 Z " fill="#EF9DB9" transform="translate(72,79)"/>
<path d="M0 0 C3.125 0.375 3.125 0.375 6 1 C5.26290216 2.61013585 4.50974143 4.21292391 3.75 5.8125 C3.12351562 7.15248047 3.12351562 7.15248047 2.484375 8.51953125 C1 11 1 11 -1.09375 12.53125 C-3.5378642 14.41441996 -3.72942636 15.69420159 -4.25 18.6875 C-4.39953125 19.49574219 -4.5490625 20.30398437 -4.703125 21.13671875 C-4.80109375 21.75160156 -4.8990625 22.36648437 -5 23 C-7.57021581 18.81256975 -6.76071096 16.14516982 -5.70703125 11.54296875 C-4.50043566 7.20322441 -3.2440637 3.2440637 0 0 Z " fill="#DFB6C6" transform="translate(59,79)"/>
<path d="M0 0 C0.33 0.66 0.66 1.32 1 2 C0.49339844 2.68835938 0.49339844 2.68835938 -0.0234375 3.390625 C-3.36308951 7.98192426 -3.36308951 7.98192426 -6 13 C-8.5 11.1875 -8.5 11.1875 -11 9 C-11 8.01 -11 7.02 -11 6 C-14.63 6.66 -18.26 7.32 -22 8 C-22.33 6.68 -22.66 5.36 -23 4 C-21.92621094 4.04640625 -20.85242187 4.0928125 -19.74609375 4.140625 C-9.18567914 4.6530541 -9.18567914 4.6530541 0 0 Z " fill="#DCB6C3" transform="translate(55,73)"/>
<path d="M0 0 C1.06347656 -0.00257812 2.12695312 -0.00515625 3.22265625 -0.0078125 C5.9375 0.125 5.9375 0.125 7.9375 1.125 C7.9375 2.775 7.9375 4.425 7.9375 6.125 C6.14659747 6.31966332 4.35473495 6.50551213 2.5625 6.6875 C1.06589844 6.84412109 1.06589844 6.84412109 -0.4609375 7.00390625 C-3.0625 7.125 -3.0625 7.125 -5.0625 6.125 C-6.3825 6.125 -7.7025 6.125 -9.0625 6.125 C-9.0625 4.475 -9.0625 2.825 -9.0625 1.125 C-5.82377868 0.04542623 -3.40221795 -0.00826784 0 0 Z " fill="#805450" transform="translate(73.0625,110.875)"/>
<path d="M0 0 C0 0.99 0 1.98 0 3 C1.0725 2.773125 2.145 2.54625 3.25 2.3125 C7 2 7 2 9.4375 3.4375 C9.953125 3.953125 10.46875 4.46875 11 5 C10.34 5 9.68 5 9 5 C9 5.66 9 6.32 9 7 C9.66 7 10.32 7 11 7 C11 7.66 11 8.32 11 9 C9.35 8.34 7.7 7.68 6 7 C6 6.34 6 5.68 6 5 C5.34773438 5.26296875 4.69546875 5.5259375 4.0234375 5.796875 C-3.17086697 8.38597572 -3.17086697 8.38597572 -7.625 6.3125 C-8.800625 5.1678125 -8.800625 5.1678125 -10 4 C-10 3.34 -10 2.68 -10 2 C-8.7090864 1.66376204 -7.41723903 1.33110751 -6.125 1 C-5.40570313 0.814375 -4.68640625 0.62875 -3.9453125 0.4375 C-2 0 -2 0 0 0 Z " fill="#C5647F" transform="translate(80,49)"/>
<path d="M0 0 C0 0.66 0 1.32 0 2 C-1.65 2.66 -3.3 3.32 -5 4 C-4.67 4.33 -4.34 4.66 -4 5 C-4.16539939 9.38308384 -4.32471565 11.35765635 -7.5625 14.4375 C-8.7690625 15.2109375 -8.7690625 15.2109375 -10 16 C-9.49287967 12.28111761 -8.88391785 9.26545761 -7 6 C-8.175625 7.2375 -8.175625 7.2375 -9.375 8.5 C-12 11 -12 11 -14 11 C-13.3808667 6.97563355 -11.51871094 4.14838867 -9 1 C-5.81431559 -0.11498954 -3.41903148 0 0 0 Z " fill="#D7C2DD" transform="translate(139,78)"/>
<path d="M0 0 C3.82283043 0.54611863 5.41079952 2.23818615 8 5 C8.66 5.33 9.32 5.66 10 6 C10 8.64 10 11.28 10 14 C6.6875 13.4375 6.6875 13.4375 3 12 C0.64174936 7.96815213 -0.42432469 4.66757161 0 0 Z " fill="#9D7092" transform="translate(152,71)"/>
<path d="M0 0 C1.60553445 1.92664134 2.87816502 3.75633004 4 6 C2.88292386 9.72358715 2.3270336 10.7819776 -1 13 C-1.99 12.67 -2.98 12.34 -4 12 C-5.10647808 9.78704384 -5.19588368 8.45327301 -5.25 6 C-5.27578125 5.29875 -5.3015625 4.5975 -5.328125 3.875 C-5.21984375 3.25625 -5.1115625 2.6375 -5 2 C-2 0 -2 0 0 0 Z " fill="#C8A8B5" transform="translate(101,11)"/>
<path d="M0 0 C0.66 0 1.32 0 2 0 C3 3 3 3 3 5 C4.98 4.34 6.96 3.68 9 3 C9.33 3.99 9.66 4.98 10 6 C10.99 6.66 11.98 7.32 13 8 C12.34 8 11.68 8 11 8 C11 8.66 11 9.32 11 10 C3.76397516 11.44720497 3.76397516 11.44720497 0.4375 9.5 C-1.55624866 6.03261103 -0.87788339 3.80416135 0 0 Z " fill="#E4B4C2" transform="translate(47,100)"/>
<path d="M0 0 C1.4540625 0.0309375 1.4540625 0.0309375 2.9375 0.0625 C2.7725 0.825625 2.6075 1.58875 2.4375 2.375 C1.72213166 6.22010484 2.11977242 9.28050993 2.9375 13.0625 C1.9475 13.3925 0.9575 13.7225 -0.0625 14.0625 C-0.7225 13.7325 -1.3825 13.4025 -2.0625 13.0625 C-2.0625 12.4025 -2.0625 11.7425 -2.0625 11.0625 C-2.7225 11.0625 -3.3825 11.0625 -4.0625 11.0625 C-4.08938151 9.41675434 -4.10884123 7.77088587 -4.125 6.125 C-4.13660156 5.20847656 -4.14820313 4.29195313 -4.16015625 3.34765625 C-4.00919455 -0.18484756 -3.60673121 0.07360676 0 0 Z " fill="#D2B4D6" transform="translate(152.0625,2.9375)"/>
<path d="M0 0 C1.97909398 -0.02686553 3.95828971 -0.04633375 5.9375 -0.0625 C7.03964844 -0.07410156 8.14179687 -0.08570312 9.27734375 -0.09765625 C12 0 12 0 13 1 C14.99958364 1.04080783 17.00045254 1.04254356 19 1 C18.67 1.66 18.34 2.32 18 3 C17.34 3 16.68 3 16 3 C15.67 4.32 15.34 5.64 15 7 C14.34 7 13.68 7 13 7 C12.7525 7.78375 12.505 8.5675 12.25 9.375 C10.84610901 12.32317108 9.99324263 12.9024777 7 14 C8.875 9.125 8.875 9.125 10 8 C10.04063832 6.33382885 10.042721 4.66611905 10 3 C8.9171875 3.061875 8.9171875 3.061875 7.8125 3.125 C4.79270631 2.99078695 2.73064271 2.24829381 0 1 C0 0.67 0 0.34 0 0 Z " fill="#E0A1B6" transform="translate(100,75)"/>
<path d="M0 0 C2 2 2 2 2 5 C5.3 4.34 8.6 3.68 12 3 C12 3.99 12 4.98 12 6 C12.94978897 8.15028304 12.94978897 8.15028304 14 10 C13.01 10.33 12.02 10.66 11 11 C10.649375 10.34 10.29875 9.68 9.9375 9 C8.03442858 6.58896039 8.03442858 6.58896039 4.3125 6.75 C3.219375 6.8325 2.12625 6.915 1 7 C0.67 6.01 0.34 5.02 0 4 C-3.72430357 3.30710631 -7.21083746 2.88855404 -11 3 C-6.9152942 0.2768628 -4.92603003 -0.30787688 0 0 Z " fill="#A6394F" transform="translate(91,49)"/>
<path d="M0 0 C4.29 0 8.58 0 13 0 C11.515 1.98 11.515 1.98 10 4 C8.35 4 6.7 4 5 4 C4.67 7.3 4.34 10.6 4 14 C3.67 13.01 3.34 12.02 3 11 C2.34 11 1.68 11 1 11 C0.67 7.37 0.34 3.74 0 0 Z " fill="#B285A5" transform="translate(144,0)"/>
<path d="M0 0 C1.65 0 3.3 0 5 0 C5 5.50914826 3.96690024 8.35615615 1 13 C-0.32 12.34 -1.64 11.68 -3 11 C-2.67 8.69 -2.34 6.38 -2 4 C-1.34 4 -0.68 4 0 4 C0 2.68 0 1.36 0 0 Z " fill="#D4AEBA" transform="translate(110,16)"/>
<path d="M0 0 C0.99 0 1.98 0 3 0 C3.33 3.3 3.66 6.6 4 10 C0 9 0 9 -3 7 C-4.65549531 6.61500109 -6.3222433 6.27206865 -8 6 C-7.67 4.68 -7.34 3.36 -7 2 C-4.69 2 -2.38 2 0 2 C0 1.34 0 0.68 0 0 Z " fill="#DDB3BD" transform="translate(144,46)"/>
<path d="M0 0 C-0.65226562 0.30292969 -1.30453125 0.60585938 -1.9765625 0.91796875 C-7.30972636 3.47442635 -11.56892467 6.10929971 -16 10 C-16.99 10.33 -17.98 10.66 -19 11 C-20.20882096 13.00016466 -20.20882096 13.00016466 -21 15 C-21 14.01 -21 13.02 -21 12 C-21.66 12 -22.32 12 -23 12 C-21.72320197 8.16960592 -20.40564374 8.01242585 -17 6 C-16.2575 5.154375 -15.515 4.30875 -14.75 3.4375 C-10.53300666 -0.30028955 -5.42652743 -1.80884248 0 0 Z " fill="#C6A6B0" transform="translate(88,39)"/>
<path d="M0 0 C1.66611905 -0.042721 3.33382885 -0.04063832 5 0 C6 1 6 1 6.0625 3.5625 C6.041875 4.366875 6.02125 5.17125 6 6 C3.525 5.01 3.525 5.01 1 4 C1 4.66 1 5.32 1 6 C1.66 6.33 2.32 6.66 3 7 C1.02 7.33 -0.96 7.66 -3 8 C-3 9.32 -3 10.64 -3 12 C-4.32 12 -5.64 12 -7 12 C-7 11.01 -7 10.02 -7 9 C-7.99 8.67 -8.98 8.34 -10 8 C-3.375 5 -3.375 5 0 5 C0 3.35 0 1.7 0 0 Z " fill="#A65E50" transform="translate(96,31)"/>
<path d="M0 0 C1.98 0.99 1.98 0.99 4 2 C5.99220557 2.68960962 7.99105606 3.36079057 10 4 C10.25 10.625 10.25 10.625 8 14 C5.525 13.01 5.525 13.01 3 12 C3.66 11.34 4.32 10.68 5 10 C3.35 6.7 1.7 3.4 0 0 Z " fill="#BE8CAE" transform="translate(152,8)"/>
<path d="M0 0 C0.4125 0.515625 0.825 1.03125 1.25 1.5625 C1.8275 2.036875 2.405 2.51125 3 3 C5.16299211 2.77242269 5.16299211 2.77242269 7 2 C6.34 3.65 5.68 5.3 5 7 C5.66 7 6.32 7 7 7 C7.33 6.34 7.66 5.68 8 5 C8.66 5 9.32 5 10 5 C10 5.99 10 6.98 10 8 C7.72942623 8.05398987 5.45848712 8.09278742 3.1875 8.125 C1.29064453 8.15980469 1.29064453 8.15980469 -0.64453125 8.1953125 C-4 8 -4 8 -7 6 C-6.67 5.34 -6.34 4.68 -6 4 C-4.35 4 -2.7 4 -1 4 C-0.67 2.68 -0.34 1.36 0 0 Z " fill="#8C5B59" transform="translate(109,67)"/>
<path d="M0 0 C2.64 0 5.28 0 8 0 C8.83982775 2.90590706 9.16544482 4.53161739 8.14453125 7.421875 C7.48517578 8.57429688 7.48517578 8.57429688 6.8125 9.75 C6.38582031 10.52859375 5.95914063 11.3071875 5.51953125 12.109375 C3.75717901 14.30212174 2.74159541 14.64776076 0 15 C0.47913106 12.41269226 1.12354801 10.8072651 2.5625 8.5625 C4.14210846 5.74667622 4.2717471 4.17038287 4 1 C2.68 0.67 1.36 0.34 0 0 Z " fill="#E6A4B9" transform="translate(91,74)"/>
<path d="M0 0 C2.64 0.33 5.28 0.66 8 1 C7.67 1.99 7.34 2.98 7 4 C6.34 4 5.68 4 5 4 C5 4.66 5 5.32 5 6 C6.32 6.33 7.64 6.66 9 7 C8.01 8.485 8.01 8.485 7 10 C5.68 10 4.36 10 3 10 C2.67 10.66 2.34 11.32 2 12 C2 11.34 2 10.68 2 10 C1.01 10.33 0.02 10.66 -1 11 C-0.67 9.68 -0.34 8.36 0 7 C0.99 7 1.98 7 3 7 C3 6.34 3 5.68 3 5 C2.01 4.67 1.02 4.34 0 4 C0.66 4 1.32 4 2 4 C2 3.34 2 2.68 2 2 C1.34 2 0.68 2 0 2 C0 1.34 0 0.68 0 0 Z " fill="#943E42" transform="translate(89,54)"/>
<path d="M0 0 C-0.33 1.65 -0.66 3.3 -1 5 C-1.99 5 -2.98 5 -4 5 C-4 4.01 -4 3.02 -4 2 C-4.66 2 -5.32 2 -6 2 C-6 2.99 -6 3.98 -6 5 C-8.33333333 5 -10.66666667 5 -13 5 C-13 3.35 -13 1.7 -13 0 C-9.03230578 -1.98384711 -4.14470514 -1.32630565 0 0 Z " fill="#845150" transform="translate(113,112)"/>
<path d="M0 0 C2.94851556 2.34488245 3.93035506 3.42333987 4.390625 7.234375 C4.34421875 8.39453125 4.2978125 9.5546875 4.25 10.75 C4.21390625 11.92046875 4.1778125 13.0909375 4.140625 14.296875 C4.09421875 15.18890625 4.0478125 16.0809375 4 17 C3.01 17 2.02 17 1 17 C-1.29811043 11.25472393 -1.98807394 5.96422183 0 0 Z " fill="#8C4643" transform="translate(71,53)"/>
<path d="M0 0 C0.99 0 1.98 0 3 0 C3.3125 2.75 3.3125 2.75 3 6 C0.6875 8.375 0.6875 8.375 -2 10 C-2.99 10 -3.98 10 -5 10 C-5 7.69 -5 5.38 -5 3 C-3.35 2.67 -1.7 2.34 0 2 C0 1.34 0 0.68 0 0 Z " fill="#D3B2B9" transform="translate(125,22)"/>
<path d="M0 0 C2.05078125 0.03255208 4.1015625 0.06510417 6.15234375 0.09765625 C5.16234375 0.42765625 4.17234375 0.75765625 3.15234375 1.09765625 C3.15234375 2.74765625 3.15234375 4.39765625 3.15234375 6.09765625 C4.47234375 6.09765625 5.79234375 6.09765625 7.15234375 6.09765625 C7.15234375 4.44765625 7.15234375 2.79765625 7.15234375 1.09765625 C7.48234375 1.09765625 7.81234375 1.09765625 8.15234375 1.09765625 C8.48234375 3.07765625 8.81234375 5.05765625 9.15234375 7.09765625 C5.19234375 7.09765625 1.23234375 7.09765625 -2.84765625 7.09765625 C-2.84765625 0.15051037 -2.84765625 0.15051037 0 0 Z " fill="#5D3533" transform="translate(60.84765625,110.90234375)"/>
<path d="M0 0 C0 1.32 0 2.64 0 4 C-0.66 4 -1.32 4 -2 4 C-2.103125 4.680625 -2.20625 5.36125 -2.3125 6.0625 C-3.14819673 9.63320419 -4.36038313 12.72076626 -6 16 C-6.99 16.33 -7.98 16.66 -9 17 C-7.66666667 13 -6.33333333 9 -5 5 C-5.66 4.34 -6.32 3.68 -7 3 C-2.25 0 -2.25 0 0 0 Z " fill="#BE8293" transform="translate(126,56)"/>
<path d="M0 0 C2.10546875 0.42578125 2.10546875 0.42578125 4 1 C3.37935063 2.60585493 2.7533082 4.20962617 2.125 5.8125 C1.77695313 6.70582031 1.42890625 7.59914063 1.0703125 8.51953125 C0 11 0 11 -2 14 C-2.66 14 -3.32 14 -4 14 C-3.34 11.69 -2.68 9.38 -2 7 C-2.66 7 -3.32 7 -4 7 C-3.59316505 4.64035727 -3.10185661 3.14065912 -1.6875 1.1875 C-1.130625 0.795625 -0.57375 0.40375 0 0 Z " fill="#713B3B" transform="translate(118,60)"/>
<path d="M0 0 C2.64 0 5.28 0 8 0 C8 1.98 8 3.96 8 6 C5.66705225 6.04241723 3.33297433 6.04092937 1 6 C0 5 0 5 -0.0625 2.4375 C-0.041875 1.633125 -0.02125 0.82875 0 0 Z " fill="#7E5251" transform="translate(123,111)"/>
<path d="M0 0 C1.98 0.99 3.96 1.98 6 3 C5.89300781 3.59167969 5.78601563 4.18335938 5.67578125 4.79296875 C4.84900009 10.05763491 4.84900009 10.05763491 6.4375 15.0625 C6.953125 15.701875 7.46875 16.34125 8 17 C5.69 17 3.38 17 1 17 C1.66 16.67 2.32 16.34 3 16 C2.91621094 15.31292969 2.83242187 14.62585938 2.74609375 13.91796875 C2.64425781 13.01691406 2.54242188 12.11585937 2.4375 11.1875 C2.28087891 9.84751953 2.28087891 9.84751953 2.12109375 8.48046875 C2 6 2 6 3 3 C2.01 2.67 1.02 2.34 0 2 C0 1.34 0 0.68 0 0 Z " fill="#A8605C" transform="translate(72,54)"/>
<path d="M0 0 C0.82638376 2.89234315 1 4.88742431 1 8 C0.505 7.71125 0.01 7.4225 -0.5 7.125 C-3.91752035 5.58711584 -7.3506202 4.85152195 -11 4 C-7.04396675 0.96704118 -5.03239385 -0.13243142 0 0 Z " fill="#BD5C7B" transform="translate(117,54)"/>
<path d="M0 0 C-3 2 -3 2 -6.625 3 C-7.73875 3.33 -8.8525 3.66 -10 4 C-10.33 4.66 -10.66 5.32 -11 6 C-10.34 6.33 -9.68 6.66 -9 7 C-10.65 7 -12.3 7 -14 7 C-14.38218767 5.34385343 -14.71395102 3.67542976 -15 2 C-13.19922304 0.19922304 -10.49752892 0.28614638 -8.0625 -0.125 C-6.98097656 -0.31320313 -5.89945313 -0.50140625 -4.78515625 -0.6953125 C-2 -1 -2 -1 0 0 Z " fill="#E4B4C4" transform="translate(23,102)"/>
<path d="M0 0 C0.99 0 1.98 0 3 0 C2.125 5.75 2.125 5.75 1 8 C0.34 8 -0.32 8 -1 8 C-1 8.66 -1 9.32 -1 10 C-1.99 10 -2.98 10 -4 10 C-4.39801392 6.5173782 -4.12373826 5.19200764 -2.1875 2.1875 C-1.465625 1.465625 -0.74375 0.74375 0 0 Z " fill="#E99BAE" transform="translate(120,80)"/>
<path d="M0 0 C0.33 0 0.66 0 1 0 C1.33 4.95 1.66 9.9 2 15 C4.97 15.495 4.97 15.495 8 16 C8.66 16.66 9.32 17.32 10 18 C4.65803318 18.36422501 4.65803318 18.36422501 1.8828125 16.828125 C-0.5291112 14.48625718 -0.83025114 12.85331893 -1.375 9.5625 C-1.54773438 8.61503906 -1.72046875 7.66757813 -1.8984375 6.69140625 C-2.00818272 3.78315792 -1.52951746 2.43227776 0 0 Z " fill="#D6BDCC" transform="translate(23,71)"/>
<path d="M0 0 C0.66 0 1.32 0 2 0 C2 0.99 2 1.98 2 3 C2.66 3 3.32 3 4 3 C4 2.01 4 1.02 4 0 C6.33333333 0 8.66666667 0 11 0 C11 1.65 11 3.3 11 5 C7.37 5 3.74 5 0 5 C0 3.35 0 1.7 0 0 Z " fill="#875450" transform="translate(87,112)"/>
<path d="M0 0 C0.66 0 1.32 0 2 0 C2.33 2.31 2.66 4.62 3 7 C3.66 7 4.32 7 5 7 C4.67 8.32 4.34 9.64 4 11 C2.68 11 1.36 11 0 11 C-1.125 3.375 -1.125 3.375 0 0 Z " fill="#C44E71" transform="translate(79,83)"/>
<path d="M0 0 C0.99 0 1.98 0 3 0 C3 0.99 3 1.98 3 3 C4.423125 2.938125 4.423125 2.938125 5.875 2.875 C9 3 9 3 11 5 C6.90274731 6.04167441 3.38504776 5.94409525 -0.8125 5.5625 C-1.97394531 5.46066406 -3.13539062 5.35882813 -4.33203125 5.25390625 C-5.21246094 5.17011719 -6.09289062 5.08632812 -7 5 C-7 4.34 -7 3.68 -7 3 C-4.69 3 -2.38 3 0 3 C0 2.01 0 1.02 0 0 Z " fill="#CF9FB4" transform="translate(119,72)"/>
<path d="M0 0 C0.33 0.66 0.66 1.32 1 2 C1.99 2.33 2.98 2.66 4 3 C4 4.98 4 6.96 4 9 C2.68 9.33 1.36 9.66 0 10 C0 9.34 0 8.68 0 8 C-0.66 8 -1.32 8 -2 8 C-2.33 6.02 -2.66 4.04 -3 2 C-2.01 1.34 -1.02 0.68 0 0 Z " fill="#D88A55" transform="translate(99,38)"/>
<path d="M0 0 C0.99 0.99 1.98 1.98 3 3 C1.125 8.75 1.125 8.75 0 11 C-1.32 11 -2.64 11 -4 11 C-3.48964169 6.6109185 -2.47785723 3.66291938 0 0 Z " fill="#BD6389" transform="translate(63,83)"/>
<path d="M0 0 C1.875 1.5 1.875 1.5 3 3 C2.01 4.485 2.01 4.485 1 6 C0.67 5.34 0.34 4.68 0 4 C-2.6340445 2.87112379 -3.76769773 2.91869421 -6.5 3.875 C-7.325 4.24625 -8.15 4.6175 -9 5 C-10.32676508 5.35858516 -11.65835921 5.7018576 -13 6 C-12.67 5.34 -12.34 4.68 -12 4 C-11.34 4 -10.68 4 -10 4 C-10 3.34 -10 2.68 -10 2 C-6.60268371 -0.09065618 -3.95730595 -0.42098999 0 0 Z " fill="#CEA4B4" transform="translate(144,34)"/>
<path d="M0 0 C0 1.98 0 3.96 0 6 C-0.66 5.34 -1.32 4.68 -2 4 C-2 3.01 -2 2.02 -2 1 C-9.13601646 1.28282126 -9.13601646 1.28282126 -15 5 C-15.66 4.67 -16.32 4.34 -17 4 C-14.08348591 0.35435739 -11.40320617 -0.8674824 -6.97265625 -1.828125 C-4.23578534 -2.06658504 -2.36602875 -1.33089117 0 0 Z " fill="#DFB8C5" transform="translate(47,98)"/>
<path d="M0 0 C0.66 0 1.32 0 2 0 C2.33 0.99 2.66 1.98 3 3 C4.0725 2.773125 5.145 2.54625 6.25 2.3125 C10 2 10 2 12.234375 3.48046875 C13.10835937 4.23263672 13.10835937 4.23263672 14 5 C12.90300781 4.98839844 11.80601563 4.97679688 10.67578125 4.96484375 C9.22135588 4.95546036 7.76692865 4.94636075 6.3125 4.9375 C5.59126953 4.92912109 4.87003906 4.92074219 4.12695312 4.91210938 C0.28444618 4.89456368 -3.26639526 5.06475779 -7 6 C-2.25 2 -2.25 2 0 2 C0 1.34 0 0.68 0 0 Z " fill="#E5A7C8" transform="translate(76,90)"/>
<path d="M0 0 C0.99 0 1.98 0 3 0 C2.67 2.31 2.34 4.62 2 7 C0.35 7.66 -1.3 8.32 -3 9 C-2.25 2.25 -2.25 2.25 0 0 Z " fill="#F1A8C3" transform="translate(86,80)"/>
<path d="M0 0 C-0.375 2.4375 -0.375 2.4375 -1 5 C-1.99 5.495 -1.99 5.495 -3 6 C-3.33 6.99 -3.66 7.98 -4 9 C-5.32 8.67 -6.64 8.34 -8 8 C-7.34 5.69 -6.68 3.38 -6 1 C-3.92446352 0.4465236 -2.15634036 0 0 0 Z " fill="#7E3A31" transform="translate(98,63)"/>
<path d="M0 0 C0 0.99 0 1.98 0 3 C-0.66 3 -1.32 3 -2 3 C-2 4.65 -2 6.3 -2 8 C-0.02 7.67 1.96 7.34 4 7 C2.75 8.5625 2.75 8.5625 1 10 C-2.0417096 9.71483972 -3.39045802 8.73969465 -6 7 C-5.37162381 3.35541809 -4.14650034 0 0 0 Z " fill="#F09F79" transform="translate(95,42)"/>
<path d="M0 0 C0.66 0 1.32 0 2 0 C2 1.65 2 3.3 2 5 C2.66 5 3.32 5 4 5 C4 5.66 4 6.32 4 7 C2.23225581 7.53122363 0.46065917 8.04964073 -1.3125 8.5625 C-2.29863281 8.85253906 -3.28476563 9.14257812 -4.30078125 9.44140625 C-7 10 -7 10 -10 9 C-4.25 6 -4.25 6 -2 6 C-2 5.34 -2 4.68 -2 4 C-1.01 4 -0.02 4 1 4 C0.67 2.68 0.34 1.36 0 0 Z " fill="#CEA5B3" transform="translate(140,24)"/>
<path d="M0 0 C0.66 0.33 1.32 0.66 2 1 C2 1.99 2 2.98 2 4 C2.66 4 3.32 4 4 4 C4.33 5.65 4.66 7.3 5 9 C2.03 8.505 2.03 8.505 -1 8 C-1 6.68 -1 5.36 -1 4 C-1.66 3.67 -2.32 3.34 -3 3 C-2.01 2.01 -1.02 1.02 0 0 Z " fill="#D4B3C1" transform="translate(73,20)"/>
<path d="M0 0 C0.33 0.99 0.66 1.98 1 3 C0.02616054 4.68208635 -0.97695052 6.34738161 -2 8 C-2.70670728 10.69254991 -2.70670728 10.69254991 -3 13 C-4.32 12.34 -5.64 11.68 -7 11 C-5.72278474 6.00724943 -3.82669043 3.42388092 0 0 Z " fill="#EFA6BE" transform="translate(105,80)"/>
<path d="M0 0 C0.66 0 1.32 0 2 0 C2 0.99 2 1.98 2 3 C2.66 3 3.32 3 4 3 C4 2.01 4 1.02 4 0 C4.99 0 5.98 0 7 0 C7 1.98 7 3.96 7 6 C5.00045254 6.04254356 2.99958364 6.04080783 1 6 C0 5 0 5 -0.0625 2.4375 C-0.041875 1.633125 -0.02125 0.82875 0 0 Z " fill="#8C5D5B" transform="translate(115,112)"/>
<path d="M0 0 C0.66 0.33 1.32 0.66 2 1 C2.625 3.0625 2.625 3.0625 3 5 C0.8019253 6.33454536 -0.52613603 7.02787435 -3.125 6.875 C-5.575137 5.73160273 -6.04432617 4.46882406 -7 2 C-6.401875 2.185625 -5.80375 2.37125 -5.1875 2.5625 C-2.83591238 3.22093687 -2.83591238 3.22093687 0 2 C0 1.34 0 0.68 0 0 Z " fill="#ED9C7C" transform="translate(110,47)"/>
<path d="M0 0 C1.32 0.66 2.64 1.32 4 2 C4 2.99 4 3.98 4 5 C4.66 5 5.32 5 6 5 C5.67 6.32 5.34 7.64 5 9 C2.03 8.67 -0.94 8.34 -4 8 C-2 6 -2 6 1 5 C0.67 3.35 0.34 1.7 0 0 Z " fill="#D5864E" transform="translate(104,42)"/>
<path d="M0 0 C0.33 1.32 0.66 2.64 1 4 C3.64 3.67 6.28 3.34 9 3 C8.67 3.66 8.34 4.32 8 5 C5.19921875 5.66796875 5.19921875 5.66796875 1.6875 6.1875 C-0.03919922 6.45626953 -0.03919922 6.45626953 -1.80078125 6.73046875 C-4.61078645 6.96720911 -6.37536523 6.91376173 -9 6 C-8.67 5.34 -8.34 4.68 -8 4 C-6.02 4 -4.04 4 -2 4 C-1.34 2.68 -0.68 1.36 0 0 Z " fill="#DD9EBC" transform="translate(111,89)"/>
<path d="M0 0 C-0.33 0.66 -0.66 1.32 -1 2 C-0.10836423 4.11683841 -0.10836423 4.11683841 1 6 C0.01 6.33 -0.98 6.66 -2 7 C-2.37125 6.34 -2.7425 5.68 -3.125 5 C-4.90894778 2.64696955 -4.90894778 2.64696955 -8.1875 2.75 C-9.115625 2.8325 -10.04375 2.915 -11 3 C-7.6562111 -0.84535724 -4.83651161 -1.55459302 0 0 Z " fill="#D17E8B" transform="translate(104,53)"/>
<path d="M0 0 C-0.66 1.65 -1.32 3.3 -2 5 C-3.65 5 -5.3 5 -7 5 C-6.67 3.35 -6.34 1.7 -6 0 C-3 -1 -3 -1 0 0 Z " fill="#F2AFB5" transform="translate(57,104)"/>
<path d="M0 0 C0.66 0 1.32 0 2 0 C1.47731534 2.76276177 0.89130413 5.3260876 0 8 C-0.66 8 -1.32 8 -2 8 C-2 8.66 -2 9.32 -2 10 C-3.32 10.33 -4.64 10.66 -6 11 C-5.37755401 9.72791378 -4.75193233 8.45738118 -4.125 7.1875 C-3.77695313 6.47980469 -3.42890625 5.77210937 -3.0703125 5.04296875 C-2 3 -2 3 0 0 Z " fill="#F3A2BE" transform="translate(79,78)"/>
<path d="M0 0 C2.64 0 5.28 0 8 0 C7.5504955 1.31554985 7.09010284 2.62738358 6.625 3.9375 C6.36976562 4.66839844 6.11453125 5.39929688 5.8515625 6.15234375 C5 8 5 8 3 9 C3.33 7.35 3.66 5.7 4 4 C3.34 4 2.68 4 2 4 C1.67 4.66 1.34 5.32 1 6 C0.67 4.02 0.34 2.04 0 0 Z " fill="#CD6382" transform="translate(101,77)"/>
<path d="M0 0 C0.66 0 1.32 0 2 0 C2 3.63 2 7.26 2 11 C1.01 11 0.02 11 -1 11 C-1.02688151 9.35425434 -1.04634123 7.70838587 -1.0625 6.0625 C-1.07410156 5.14597656 -1.08570312 4.22945312 -1.09765625 3.28515625 C-1 1 -1 1 0 0 Z " fill="#D7B1BE" transform="translate(99,11)"/>
<path d="M0 0 C1.258125 -0.04125 2.51625 -0.0825 3.8125 -0.125 C4.52019531 -0.14820312 5.22789063 -0.17140625 5.95703125 -0.1953125 C8 0 8 0 11 2 C7.7 2.66 4.4 3.32 1 4 C0.67 2.68 0.34 1.36 0 0 Z " fill="#E6BCC5" transform="translate(32,77)"/>
<path d="M0 0 C0.99 0 1.98 0 3 0 C3.33 3.3 3.66 6.6 4 10 C2.68 9.67 1.36 9.34 0 9 C0 6.03 0 3.06 0 0 Z " fill="#DAB6CD" transform="translate(144,46)"/>
<path d="M0 0 C2.64 0 5.28 0 8 0 C8 1.65 8 3.3 8 5 C6.68 5 5.36 5 4 5 C3.67 4.34 3.34 3.68 3 3 C2.01 3.33 1.02 3.66 0 4 C0 2.68 0 1.36 0 0 Z " fill="#B3A5B9" transform="translate(0,0)"/>
<path d="M0 0 C-4.44602302 4.44602302 -9.01298852 5.11647986 -15 6 C-12.61827612 3.26455475 -10.29334709 2.07454642 -6.9375 0.75 C-6.05964844 0.39421875 -5.18179687 0.0384375 -4.27734375 -0.328125 C-2 -1 -2 -1 0 0 Z " fill="#E4B5BD" transform="translate(30,104)"/>
<path d="M0 0 C3.82283043 0.54611863 5.41079952 2.23818615 8 5 C8.66 5.33 9.32 5.66 10 6 C10 6.66 10 7.32 10 8 C6.7 7.01 3.4 6.02 0 5 C0 3.35 0 1.7 0 0 Z " fill="#956B8B" transform="translate(152,71)"/>
<path d="M0 0 C0.99 0 1.98 0 3 0 C3 0.66 3 1.32 3 2 C3.99 2.33 4.98 2.66 6 3 C6 4.98 6 6.96 6 9 C3 7.3125 3 7.3125 0 5 C-0.375 2.25 -0.375 2.25 0 0 Z " fill="#924033" transform="translate(76,61)"/>
<path d="M0 0 C0.55429688 0.42152344 1.10859375 0.84304687 1.6796875 1.27734375 C2.40414062 1.82519531 3.12859375 2.37304688 3.875 2.9375 C4.59429687 3.48277344 5.31359375 4.02804688 6.0546875 4.58984375 C7.94357079 6.03964624 7.94357079 6.03964624 10 7 C10 7.66 10 8.32 10 9 C6.33118845 8.29445932 3.29549466 6.72264494 0 5 C0 3.35 0 1.7 0 0 Z " fill="#E6A295" transform="translate(112,46)"/>
<path d="M0 0 C0.66 0.66 1.32 1.32 2 2 C-0.25 4.5625 -0.25 4.5625 -3 7 C-5.3125 6.8125 -5.3125 6.8125 -7 6 C-3.375 1.125 -3.375 1.125 0 0 Z " fill="#C95E84" transform="translate(110,87)"/>
<path d="M0 0 C1.06546953 3.1964086 1.07427838 5.65747276 1 9 C-0.65 9 -2.3 9 -4 9 C-4.8125 7.3125 -4.8125 7.3125 -5 5 C-2.5625 2.25 -2.5625 2.25 0 0 Z " fill="#C74C6D" transform="translate(116,82)"/>
<path d="M0 0 C1.32 0.33 2.64 0.66 4 1 C1.03 5.95 1.03 5.95 -2 11 C-2.99 10.67 -3.98 10.34 -5 10 C-4 8 -4 8 -2.5 6.125 C-1.01036188 4.01467933 -0.44905664 2.51471718 0 0 Z " fill="#ECBCD6" transform="translate(61,80)"/>
<path d="M0 0 C2.03833424 1.2739589 4.03852126 2.61061923 6 4 C6 4.66 6 5.32 6 6 C5.34 6 4.68 6 4 6 C3.67 7.32 3.34 8.64 3 10 C0.59185923 6.48812804 -0.36629408 4.27343092 0 0 Z " fill="#B896B7" transform="translate(148,65)"/>
<path d="M0 0 C2 3 2 3 1.625 5.1875 C1.41875 5.785625 1.2125 6.38375 1 7 C1 6.01 1 5.02 1 4 C0.34 4 -0.32 4 -1 4 C-1 4.66 -1 5.32 -1 6 C-4 8 -4 8 -6.1875 7.625 C-6.785625 7.41875 -7.38375 7.2125 -8 7 C-2.25 2 -2.25 2 0 2 C0 1.34 0 0.68 0 0 Z " fill="#C66388" transform="translate(77,86)"/>
<path d="M0 0 C2.2477975 2.05233685 3.0022242 3.00667261 4 6 C1.69 6 -0.62 6 -3 6 C-3.33 5.01 -3.66 4.02 -4 3 C-2.68 2.01 -1.36 1.02 0 0 Z " fill="#C7A5C4" transform="translate(148,70)"/>
<path d="M0 0 C1.65 0 3.3 0 5 0 C4.67 1.98 4.34 3.96 4 6 C2.68 6 1.36 6 0 6 C0 4.02 0 2.04 0 0 Z " fill="#A5665F" transform="translate(98,66)"/>
<path d="M0 0 C3.3 0 6.6 0 10 0 C9.01 0.33 8.02 0.66 7 1 C7 1.66 7 2.32 7 3 C7.99 3 8.98 3 10 3 C10 3.66 10 4.32 10 5 C7.625 5.1875 7.625 5.1875 5 5 C4.34 4.01 3.68 3.02 3 2 C2.01 1.34 1.02 0.68 0 0 Z " fill="#E5B0BB" transform="translate(37,63)"/>
<path d="M0 0 C-1 3 -1 3 -2.875 4.1875 C-5 5 -5 5 -8 5 C-8.33 4.01 -8.66 3.02 -9 2 C-3.375 0 -3.375 0 0 0 Z " fill="#EA9F89" transform="translate(88,46)"/>
<path d="M0 0 C4.60853797 0.72008406 8.67237409 2.31295939 13 4 C12.67 5.32 12.34 6.64 12 8 C11.67 7.01 11.34 6.02 11 5 C7.7 4.34 4.4 3.68 1 3 C0.67 2.01 0.34 1.02 0 0 Z " fill="#B48E9D" transform="translate(90,27)"/>
<path d="M0 0 C2.28877281 2.28877281 3.90978598 3.95532166 4.1953125 7.26171875 C4.16050781 8.46248047 4.16050781 8.46248047 4.125 9.6875 C4.10695312 10.49574219 4.08890625 11.30398438 4.0703125 12.13671875 C4.03550781 13.05904297 4.03550781 13.05904297 4 14 C3.67 13.01 3.34 12.02 3 11 C2.34 11 1.68 11 1 11 C0.67 7.37 0.34 3.74 0 0 Z " fill="#C398B4" transform="translate(144,0)"/>
<path d="M0 0 C0 0.66 0 1.32 0 2 C-1.65532623 3.01866229 -3.32260138 4.01810813 -5 5 C-5.33 5.66 -5.66 6.32 -6 7 C-6.66 7 -7.32 7 -8 7 C-7.6875 4.625 -7.6875 4.625 -7 2 C-4 0 -4 0 0 0 Z " fill="#B65375" transform="translate(90,77)"/>
<path d="M0 0 C1.32 0.66 2.64 1.32 4 2 C4 2.99 4 3.98 4 5 C0.86650268 6.04449911 0.01031744 5.93423645 -3 5 C-3 3 -3 3 -1.5 1.375 C-1.005 0.92125 -0.51 0.4675 0 0 Z " fill="#7B3435" transform="translate(97,55)"/>
<path d="M0 0 C0.33 0 0.66 0 1 0 C1.33 2.97 1.66 5.94 2 9 C2.66 9 3.32 9 4 9 C4 8.34 4 7.68 4 7 C4.99 7.33 5.98 7.66 7 8 C6.01 9.485 6.01 9.485 5 11 C1.875 11.1875 1.875 11.1875 -1 11 C-0.67 7.37 -0.34 3.74 0 0 Z " fill="#C1ABBC" transform="translate(89,17)"/>
<path d="M0 0 C0.99 0.66 1.98 1.32 3 2 C3.1875 5.125 3.1875 5.125 3 8 C3.99 8.33 4.98 8.66 6 9 C4.68 9.33 3.36 9.66 2 10 C1.34 8.35 0.68 6.7 0 5 C-0.66 5 -1.32 5 -2 5 C-1.34 3.35 -0.68 1.7 0 0 Z " fill="#DAA1B8" transform="translate(66,86)"/>
<path d="M0 0 C1.32 0 2.64 0 4 0 C4 0.66 4 1.32 4 2 C5.98 2 7.96 2 10 2 C6.5980513 4.09350689 3.94727588 4.17942163 0 4 C0 2.68 0 1.36 0 0 Z " fill="#D2B2C8" transform="translate(80,73)"/>
<path d="M0 0 C0.33 0.66 0.66 1.32 1 2 C-0.25 5.5625 -0.25 5.5625 -2 9 C-2.99 9.33 -3.98 9.66 -5 10 C-4.55090939 8.51800098 -4.09043436 7.03944764 -3.625 5.5625 C-3.36976562 4.73878906 -3.11453125 3.91507812 -2.8515625 3.06640625 C-2 1 -2 1 0 0 Z " fill="#9E787A" transform="translate(122,63)"/>
<path d="M0 0 C0.99 0.33 1.98 0.66 3 1 C2.38722388 3.96175123 1.74627478 5.38058783 0 8 C-0.99 8 -1.98 8 -3 8 C-2.01 5.36 -1.02 2.72 0 0 Z " fill="#C1A6B3" transform="translate(124,60)"/>
<path d="M0 0 C-2.52788007 2.79872437 -4.20411134 4.45773019 -8 5 C-8 3.68 -8 2.36 -8 1 C-3.375 -1.125 -3.375 -1.125 0 0 Z " fill="#903B3F" transform="translate(86,55)"/>
<path d="M0 0 C2.88437779 1.29299694 4.87219421 2.65941363 7 5 C5.68 5.99 4.36 6.98 3 8 C2.690625 7.360625 2.38125 6.72125 2.0625 6.0625 C1.1654837 4.06389179 1.1654837 4.06389179 0 3 C0 2.01 0 1.02 0 0 Z " fill="#AB405D" transform="translate(115,52)"/>
<path d="M0 0 C0.33 0.99 0.66 1.98 1 3 C1.66 3.33 2.32 3.66 3 4 C1.37660195 5.70884005 -0.29319053 7.37446717 -2 9 C-2.66 9 -3.32 9 -4 9 C-3.35455571 5.51460083 -1.89865603 2.97180943 0 0 Z " fill="#EDA3C6" transform="translate(129,80)"/>
<path d="M0 0 C0.33 0.66 0.66 1.32 1 2 C-2.625 7.875 -2.625 7.875 -6 9 C-4.68775452 5.06326356 -3.08089673 2.77280706 0 0 Z " fill="#FAA3C5" transform="translate(113,80)"/>
<path d="M0 0 C0.99 0 1.98 0 3 0 C1.125 4.75 1.125 4.75 0 7 C-0.99 7 -1.98 7 -3 7 C-2.67 5.35 -2.34 3.7 -2 2 C-1.34 2 -0.68 2 0 2 C0 1.34 0 0.68 0 0 Z " fill="#B6516D" transform="translate(93,78)"/>
<path d="M0 0 C1.65 0 3.3 0 5 0 C5.33 1.32 5.66 2.64 6 4 C4.68 4.33 3.36 4.66 2 5 C1.34 3.35 0.68 1.7 0 0 Z " fill="#D5C2CE" transform="translate(43,78)"/>
<path d="M0 0 C2.97 0.33 5.94 0.66 9 1 C8.34 2.32 7.68 3.64 7 5 C4.625 4.75 4.625 4.75 2 4 C1.34 2.68 0.68 1.36 0 0 Z " fill="#993E53" transform="translate(101,54)"/>
<path d="M0 0 C0.99 0 1.98 0 3 0 C3 1.65 3 3.3 3 5 C1.35 5 -0.3 5 -2 5 C-1.125 1.125 -1.125 1.125 0 0 Z " fill="#CA476C" transform="translate(88,86)"/>
<path d="M0 0 C0.66 0 1.32 0 2 0 C2 1.65 2 3.3 2 5 C0.02 5.99 0.02 5.99 -2 7 C-2.125 4.625 -2.125 4.625 -2 2 C-1.34 1.34 -0.68 0.68 0 0 Z " fill="#BF4C6E" transform="translate(71,86)"/>
<path d="M0 0 C0.99 0.33 1.98 0.66 3 1 C3 1.66 3 2.32 3 3 C2.34 3 1.68 3 1 3 C0.67 4.65 0.34 6.3 0 8 C0.66 8.33 1.32 8.66 2 9 C0.68 9 -0.64 9 -2 9 C-2 6.69 -2 4.38 -2 2 C-1.34 2 -0.68 2 0 2 C0 1.34 0 0.68 0 0 Z " fill="#CB6888" transform="translate(90,77)"/>
<path d="M0 0 C0.66 0 1.32 0 2 0 C1.65120368 3.25543229 0.97866739 4.01873107 -1.5625 6.25 C-2.366875 6.8275 -3.17125 7.405 -4 8 C-4 7.34 -4 6.68 -4 6 C-4.66 6 -5.32 6 -6 6 C-5.67 5.34 -5.34 4.68 -5 4 C-4.34 4 -3.68 4 -3 4 C-2.505 3.34 -2.01 2.68 -1.5 2 C-1.005 1.34 -0.51 0.68 0 0 Z " fill="#BD7098" transform="translate(130,84)"/>
<path d="M0 0 C0.66 0 1.32 0 2 0 C2 0.66 2 1.32 2 2 C3.32 2.66 4.64 3.32 6 4 C5.34 4 4.68 4 4 4 C4 4.66 4 5.32 4 6 C2.68 5.67 1.36 5.34 0 5 C0 3.35 0 1.7 0 0 Z " fill="#AA85A4" transform="translate(154,77)"/>
<path d="M0 0 C2 1 2 1 2.6875 2.75 C3.05449975 5.39239823 2.64331769 7.42672922 2 10 C1.34 10 0.68 10 0 10 C0 6.7 0 3.4 0 0 Z " fill="#DFC2E2" transform="translate(147,44)"/>
<path d="M0 0 C0.99 0.33 1.98 0.66 3 1 C1.71475739 1.86380259 0.42157581 2.71580369 -0.875 3.5625 C-1.59429687 4.03816406 -2.31359375 4.51382813 -3.0546875 5.00390625 C-3.69664063 5.33261719 -4.33859375 5.66132812 -5 6 C-5.66 5.67 -6.32 5.34 -7 5 C-2.25 1.125 -2.25 1.125 0 0 Z " fill="#83513E" transform="translate(83,40)"/>
<path d="M0 0 C0.99 0.33 1.98 0.66 3 1 C2.34 2.65 1.68 4.3 1 6 C1.66 6.33 2.32 6.66 3 7 C1.68 7.33 0.36 7.66 -1 8 C-1.04241723 5.66705225 -1.04092937 3.33297433 -1 1 C-0.67 0.67 -0.34 0.34 0 0 Z " fill="#C5ACB5" transform="translate(121,24)"/>
<path d="M0 0 C0.66 0 1.32 0 2 0 C2 0.99 2 1.98 2 3 C2.66 3 3.32 3 4 3 C4 2.01 4 1.02 4 0 C4.66 0 5.32 0 6 0 C6 1.32 6 2.64 6 4 C4.02 4.33 2.04 4.66 0 5 C0 3.35 0 1.7 0 0 Z " fill="#9C6A65" transform="translate(87,112)"/>
<path d="M0 0 C2.97 0 5.94 0 9 0 C8.67 0.99 8.34 1.98 8 3 C5.6568787 2.74438677 3.32156597 2.40729228 1 2 C0.67 1.34 0.34 0.68 0 0 Z " fill="#D4C0DB" transform="translate(144,76)"/>
<path d="M0 0 C2.97 0 5.94 0 9 0 C7.515 1.485 7.515 1.485 6 3 C5.34 3 4.68 3 4 3 C4 2.34 4 1.68 4 1 C3.34 1 2.68 1 2 1 C1.67 1.99 1.34 2.98 1 4 C0.67 2.68 0.34 1.36 0 0 Z " fill="#D395AA" transform="translate(77,77)"/>
<path d="M0 0 C0.66 0 1.32 0 2 0 C2 2.31 2 4.62 2 7 C1.01 7.33 0.02 7.66 -1 8 C-0.67 5.36 -0.34 2.72 0 0 Z " fill="#BE7971" transform="translate(89,64)"/>
<path d="M0 0 C0.66 0 1.32 0 2 0 C2 1.98 2 3.96 2 6 C0.68 6 -0.64 6 -2 6 C-2 5.01 -2 4.02 -2 3 C-1.34 3 -0.68 3 0 3 C0 2.01 0 1.02 0 0 Z " fill="#815B60" transform="translate(60,112)"/>
<path d="M0 0 C0.6875 1.6875 0.6875 1.6875 1 4 C-0.4375 6.75 -0.4375 6.75 -2 9 C-3.04940314 5.85179059 -3.066855 5.00659136 -2 2 C-1.34 1.34 -0.68 0.68 0 0 Z " fill="#DABCD0" transform="translate(60,80)"/>
<path d="M0 0 C2.64 0.33 5.28 0.66 8 1 C8 1.66 8 2.32 8 3 C5.36 3 2.72 3 0 3 C0 2.01 0 1.02 0 0 Z " fill="#D5B3C1" transform="translate(56,65)"/>
<path d="M0 0 C1.65 0.33 3.3 0.66 5 1 C5 1.66 5 2.32 5 3 C4.34 3 3.68 3 3 3 C2.67 3.66 2.34 4.32 2 5 C2 4.34 2 3.68 2 3 C1.01 3.33 0.02 3.66 -1 4 C-0.67 2.68 -0.34 1.36 0 0 Z " fill="#9A3E2D" transform="translate(89,61)"/>
<path d="M0 0 C1.03159626 3.09478879 0.97482862 4.52631393 0.5625 7.6875 C0.46066406 8.49574219 0.35882813 9.30398437 0.25390625 10.13671875 C0.17011719 10.75160156 0.08632812 11.36648437 0 12 C-0.33 12 -0.66 12 -1 12 C-1.33 8.37 -1.66 4.74 -2 1 C-1.34 0.67 -0.68 0.34 0 0 Z " fill="#D8B5D4" transform="translate(148,32)"/>
<path d="M0 0 C0.33 0 0.66 0 1 0 C1 1.65 1 3.3 1 5 C-1.875 5.625 -1.875 5.625 -5 6 C-5.66 5.34 -6.32 4.68 -7 4 C-3.535 3.505 -3.535 3.505 0 3 C0 2.01 0 1.02 0 0 Z " fill="#C8A4A8" transform="translate(95,31)"/>
<path d="M0 0 C0.99 1.32 1.98 2.64 3 4 C2.67 4.66 2.34 5.32 2 6 C-0.31 5.34 -2.62 4.68 -5 4 C-5 3.34 -5 2.68 -5 2 C-3.68 2 -2.36 2 -1 2 C-0.67 1.34 -0.34 0.68 0 0 Z " fill="#CDA1C2" transform="translate(155,14)"/>
<path d="M0 0 C2.88437779 1.29299694 4.87219421 2.65941363 7 5 C6.67 5.66 6.34 6.32 6 7 C3 6 3 6 1.3125 2.9375 C0.879375 1.968125 0.44625 0.99875 0 0 Z " fill="#A48BAE" transform="translate(152,8)"/>
<path d="M0 0 C0.99 0 1.98 0 3 0 C2.67 1.65 2.34 3.3 2 5 C1.01 5 0.02 5 -1 5 C-0.67 3.35 -0.34 1.7 0 0 Z " fill="#F2B6C8" transform="translate(120,80)"/>
<path d="M0 0 C0.99 0.99 1.98 1.98 3 3 C2.6875 6.6875 2.6875 6.6875 2 10 C1.67 10 1.34 10 1 10 C0.67 6.7 0.34 3.4 0 0 Z " fill="#955F68" transform="translate(68,50)"/>
</svg>
